$MeshFormat
2.2 0 8
$EndMeshFormat
$PhysicalNames
1
3 1 "Cylinder"
$EndPhysicalNames
$Nodes
523
1 0.5 -1.224646799147353e-16 10
2 0.5 -1.224646799147353e-16 0
3 0.4206267664155908 0.2703204087277985 10
4 0.2077075065009438 0.4548159976772589 10
5 -0.07115741913664184 0.4949107209404665 10
6 -0.327430366972642 0.3778747871771296 10
7 -0.4797464868072482 0.1408662784207163 10
8 -0.4797464868072494 -0.1408662784207126 10
9 -0.3274303669726446 -0.3778747871771274 10
10 -0.07115741913664614 -0.4949107209404658 10
11 0.2077075065009402 -0.4548159976772606 10
12 0.4206267664155894 -0.2703204087278006 10
13 0.5 -1.224646799147353e-16 0.2941176470588239
14 0.5 -1.224646799147353e-16 0.5882352941176477
15 0.5 -1.224646799147353e-16 0.8823529411764718
16 0.5 -1.224646799147353e-16 1.176470588235296
17 0.5 -1.224646799147353e-16 1.47058823529412
18 0.5 -1.224646799147353e-16 1.764705882352943
19 0.5 -1.224646799147353e-16 2.058823529411767
20 0.5 -1.224646799147353e-16 2.35294117647059
21 0.5 -1.224646799147353e-16 2.647058823529415
22 0.5 -1.224646799147353e-16 2.941176470588239
23 0.5 -1.224646799147353e-16 3.235294117647064
24 0.5 -1.224646799147353e-16 3.529411764705888
25 0.5 -1.224646799147353e-16 3.823529411764713
26 0.5 -1.224646799147353e-16 4.117647058823538
27 0.5 -1.224646799147353e-16 4.411764705882362
28 0.5 -1.224646799147353e-16 4.705882352941187
29 0.5 -1.224646799147353e-16 5.000000000000011
30 0.5 -1.224646799147353e-16 5.294117647058833
31 0.5 -1.224646799147353e-16 5.588235294117657
32 0.5 -1.224646799147353e-16 5.882352941176478
33 0.5 -1.224646799147353e-16 6.176470588235301
34 0.5 -1.224646799147353e-16 6.470588235294124
35 0.5 -1.224646799147353e-16 6.764705882352946
36 0.5 -1.224646799147353e-16 7.058823529411768
37 0.5 -1.224646799147353e-16 7.352941176470591
38 0.5 -1.224646799147353e-16 7.647058823529414
39 0.5 -1.224646799147353e-16 7.941176470588236
40 0.5 -1.224646799147353e-16 8.23529411764706
41 0.5 -1.224646799147353e-16 8.529411764705882
42 0.5 -1.224646799147353e-16 8.823529411764703
43 0.5 -1.224646799147353e-16 9.117647058823527
44 0.5 -1.224646799147353e-16 9.41176470588235
45 0.5 -1.224646799147353e-16 9.705882352941172
46 0.4206267664155908 0.2703204087277985 0
47 0.2077075065009438 0.4548159976772589 0
48 -0.07115741913664184 0.4949107209404665 0
49 -0.327430366972642 0.3778747871771296 0
50 -0.4797464868072482 0.1408662784207163 0
51 -0.4797464868072494 -0.1408662784207126 0
52 -0.3274303669726446 -0.3778747871771274 0
53 -0.07115741913664614 -0.4949107209404658 0
54 0.2077075065009402 -0.4548159976772606 0
55 0.4206267664155894 -0.2703204087278006 0
56 0.4351617771746326 0.2462401829235339 5.73157792899586
57 0.4365121161340046 0.2438384146688401 6.617647058823535
58 0.4362222070570946 -0.2443566779734846 4.853700970964717
59 0.4355630243286298 -0.245529737175963 3.383014600157099
60 0.4351211072673337 0.246312041951768 1.911764705882355
61 0.4349160082130932 0.2466740071430078 7.795898136199594
62 0.4332459640254853 0.2495955421389331 8.673481281182706
63 0.4351211072664249 -0.2463120419533733 8.676470588235293
64 0.4350997845215884 -0.2463497057219013 1.322352288311309
65 -0.4287363036216434 0.2572648090136891 0.2376358632309804
66 -0.4999999253584251 -0.0002732060931576595 9.737335369074806
67 -0.1968696200171926 -0.4596110885458337 0.1912243101659218
68 0.4351211072664361 0.2463120419533535 1.029411764705884
69 0.4351926174625776 -0.2461856732347976 4.264889136632712
70 0.435079059351296 0.2463863066690019 5.147203078198495
71 0.4278895697481526 -0.2586706711259334 2.799346000116231
72 0.4304915317023083 -0.2543168125244583 5.432821051461071
73 0.4351211072664224 0.2463120419533778 7.205882352941179
74 0.4274507651008739 -0.2593951491733751 1.906246110481112
75 0.4351211072664048 -0.2463120419534089 8.088235294117649
76 0.4308214737309488 -0.2537574782588553 7.494082779428557
77 0.4351211072664052 -0.2463120419534081 6.911764705882357
78 0.4270949377258251 -0.259980603447591 6.315137136918707
79 0.4351211072665105 0.2463120419532221 2.500000000000003
80 0.4346967018992173 0.2470602706991615 3.088768266484125
81 0.4349542158859572 0.2466066302495376 4.559303122555499
82 0.4349056846063341 0.2466922080186075 3.970913048370152
83 0.4351211072663556 -0.2463120419534958 9.264705882352938
84 0.4351211072664426 0.2463120419533421 9.264705882352938
85 0.07733321362595726 0.4939833742852912 0.225879858465439
86 -0.1970082806434474 0.459551669954438 9.782736614652306
87 -0.1985713372699079 -0.4588784414361177 9.777343858411498
88 0.4364968737583863 -0.2438656991033289 0.7391635688632285
89 0.3260432974811954 0.3790722466332622 9.796131241758459
90 0.3262892101607491 -0.3788605961731498 9.795083634755894
91 0.3270093984404294 -0.3782391483329409 0.200424864743397
92 0.4269764712586711 0.2601751198548646 0.4388803425095553
93 0.4335727049944377 0.2490275275623285 0.7351129468834637
94 0.2593961775886543 0.4274501410134232 0.8823549785168675
95 0.2590727329532359 0.4276462545611049 1.173873291841959
96 0.01832131878030276 0.4996642165276102 1.027015889450231
97 0.01710537757472622 0.4997073203966759 1.318029096492446
98 -0.2277382710789067 0.4451238927377303 1.171748306041727
99 -0.2290358459572486 0.4444576259517295 1.462599972012088
100 -0.2268615413346256 0.4455713647254253 0.8818642028256928
101 -0.4148056097431211 0.2791707472598758 1.025820528458353
102 0.0163088855858873 0.4997339494680609 1.609209981783922
103 -0.230195169043082 0.4438582928697254 1.754036119830173
104 -0.4171211118677876 0.2756990715149049 1.607077085795646
105 -0.4180773552932456 0.2742468322351332 1.898820647144373
106 -0.4987407151290021 0.03546405324566834 1.751864452775469
107 -0.498842321706243 0.03400497132369212 2.043894424150283
108 -0.4186060657883851 0.2734391370765536 2.191161282325147
109 -0.4989416578458226 0.03251495142333902 2.336476837647677
110 -0.4191469228358581 0.2726093488441495 2.483882700539346
111 -0.4990296089746862 0.0311359818629803 2.629442590623198
112 -0.4503074033387664 -0.2173090943754945 2.481741123979409
113 -0.4496530338411858 -0.2186598938018067 2.774984460499307
114 -0.4991024320095316 0.02994599075286766 2.922810002239599
115 -0.4490140753234853 -0.219968998182461 3.068473024373099
116 -0.4991759378767527 0.02869465185124861 3.216573053446781
117 -0.4464383693922735 -0.2251505770242837 3.36164740575181
118 -0.499276536063434 0.02688755356105367 3.510321647761765
119 -0.4452856208377641 -0.2274218896129547 3.656193980249643
120 -0.4993524778904038 0.02543821583196851 3.804310698427274
121 -0.4436538311955293 -0.2305889807981483 3.952989516587275
122 -0.4994268647359899 0.02393338212579405 4.098734876084572
123 -0.443633125712517 -0.2306288138341394 4.250207129585871
124 -0.4994750970402705 0.02290474703227049 4.393330673767026
125 -0.261159168088835 -0.4263752911733367 3.810345837349817
126 -0.4456963959518689 -0.2266158040285693 4.541037449730785
127 -0.4995097702635808 0.0221357044438334 4.686942577149702
128 -0.4436241861412614 -0.2306460090062334 4.832324167726791
129 -0.4995774492873186 0.02055169490763636 4.980530030581955
130 -0.4426194355963315 -0.2325683452931309 5.126408196516908
131 -0.4996375078635989 0.01903577515763755 5.274495791843821
132 -0.4435779882053303 -0.2307348443120628 5.420341628963063
133 -0.4996718741776667 0.01811127151190617 5.568544846808308
134 -0.4433831014075407 -0.231109120084497 5.7144123480116
135 -0.4997143778119107 0.0168979468591583 5.862710046312439
136 -0.4428895624803028 -0.2320535184952083 6.008482969798234
137 -0.4997540264647521 0.01568161446624255 6.156596587657836
138 -0.4423921997250375 -0.2330003039106226 6.302385262008331
139 -0.4997896527260431 0.01450182843579282 6.450404356865072
140 -0.2715011819497493 -0.4198655834905846 5.860537065531608
141 -0.4275736864562896 0.2591924818550463 6.304733049147536
142 -0.4282564821416308 0.2580627549718772 6.598665588075832
143 -0.4998252803749054 0.01321700034603891 6.744112666103737
144 -0.4206351173963938 0.2703074139066889 3.66108798488102
145 -0.4290004781977332 0.2568240442523173 6.89246382567834
146 -0.499859223433 0.01186409494896767 7.037924897599298
147 -0.4297245019194262 0.255610744003653 7.18594632532606
148 -0.4998864462734981 0.01065555404721465 7.331652764215568
149 -0.4304186162929886 0.2544401987666828 7.479423333707806
150 -0.4999111293393828 0.009426704759507281 7.625090253397885
151 -0.4307724906795704 0.2538406217958809 7.772623912685353
152 -0.4999306421878651 0.008327844957058662 7.918293429237712
153 -0.4314306279325524 0.2527204251375885 8.065773709406846
154 -0.4999450208583794 0.007414588249830896 8.211030147368328
155 -0.4327627221025779 0.2504324786411837 8.358194246436005
156 -0.4999528488950309 0.006866504332070049 8.502880899631531
157 -0.433809716658328 0.2486144198006648 8.649233174222939
158 -0.4999597953460492 0.006340586529385752 8.793187231131279
159 -0.4345498168180492 0.2473185328749139 8.93927945442095
160 -0.2518989526385045 0.4319107751140557 8.218734126818433
161 -0.4401486998189985 -0.2372111339032069 8.356931099300684
162 -0.4407921691381406 -0.2360132700220327 7.183919340578644
163 -0.4398734770930263 -0.237721105815388 7.770857025636309
164 -0.4255253987082016 0.2625416825081802 5.422700505196824
165 -0.4242081505493678 0.2646647785548445 4.835201295999426
166 -0.422944558565322 0.2666793962419761 4.24825846873524
167 -0.4999721419366446 0.005278000311075548 9.082048639052161
168 -0.4404921130820799 -0.236572818202946 8.937079122443006
169 -0.4519276572851685 -0.2139191262620977 1.896500044670142
170 -0.4525414139614251 -0.2126176583677709 1.604603829468669
171 -0.4203662295930266 0.2707253830318517 3.071135263392709
172 -0.2900866213813987 -0.4072465495194834 1.749162193182333
173 -0.2912465174542556 -0.4064178466440272 1.457136882077432
174 -0.284660598752777 -0.4110575914853179 2.627041039696297
175 -0.2629853992696506 -0.4252513136616775 3.219516136622734
176 -0.2606961839905968 -0.4266585281612696 4.692697133384577
177 -0.2659011316284696 -0.4234342784880545 5.277397662704036
178 -0.2492494832955955 0.4334451465605292 7.629329434505671
179 -0.2594869191652855 0.4273950617193753 8.795741380633812
180 -0.260833591389025 0.4265745393282435 9.085055196830467
181 -0.245600341759027 0.4355232165199108 7.042917794318295
182 -0.245174826125194 0.4357628995617696 6.452901377831161
183 -0.2439125898857153 0.4364706731216232 6.158863739255349
184 -0.2311931974728392 0.4433392667498389 2.33858769469111
185 -0.4400937463420202 -0.2373130726079909 9.225158174255629
186 -0.2707225004352136 -0.4203680860366374 9.080782777893834
187 -0.2318650329247762 0.4429882690397032 2.631270178608988
188 -0.2860998033819084 -0.4100571941873882 2.333833724298658
189 0.01594883371534121 0.4997455699684795 1.900938160827539
190 -0.04404496789130851 -0.4980562626887183 2.484636070293197
191 -0.04819757334015891 -0.4976715723487931 2.185946855051266
192 -0.0240187415876327 -0.4994227668544422 2.785366595075603
193 -0.2714302254385966 -0.4199114581889289 8.792653280324375
194 -0.04734262775445747 -0.4977536294165045 1.604300039340196
195 0.002004203594461932 0.4999959831518169 6.306902115337763
196 0.002489997281205405 0.4999937998750981 6.603349243769483
197 -0.02754770744806598 -0.4992405470455658 8.938809656034833
198 -0.03316788862673417 -0.4988986782544573 9.225843134249986
199 -0.02150678459139688 0.4995372440734918 8.943114722627806
200 -0.02015473441268604 0.4995936215372991 9.232599298913151
201 -0.01701597637639691 0.4997103726639641 8.659488120866795
202 -0.4531061015308929 -0.2114115908730555 1.312698368639297
203 -0.2926531169865133 -0.4054061582143001 1.165867659975682
204 0.003323883216569953 0.4999889516782972 6.012955777540347
205 -0.4110859649765898 0.284619622301882 0.7478674871633149
206 -0.4980142268203113 0.04451774797277542 0.8822364890358338
207 -0.4957264706202248 0.06523240242713266 0.6351343775263075
208 -0.4579792421643746 -0.2006365214674165 0.7356091635346197
209 -0.2429629043766633 0.4370000310032671 5.865077931315843
210 -0.01607867561252471 -0.4997414093214081 8.654036638677596
211 0.2117193469723136 -0.4529623804662117 2.347793060834562
212 -0.2217283332480676 0.4481479066502865 0.5911793947054543
213 0.004051883539419786 0.4999835819702313 5.72243192877059
214 0.2492147025495714 0.4334651451191072 6.162659365151782
215 0.01566962108359075 0.4997544026570418 2.486451316906561
216 0.01529804336690143 0.4997659150733915 2.780743903521428
217 -0.2729769671524926 0.4189075976921725 9.357864800097177
218 -0.4999732584379663 0.005171155279292069 9.397064237002329
219 -0.4694846618449837 -0.1720004427096086 0.4647683756965151
220 -0.2833290929603169 -0.4119764860793442 0.6095919116147128
221 -0.4399288369858597 -0.237618640658238 9.512253964089211
222 -0.437791374545608 0.2415340811841409 9.538752914729319
223 0.2331715107178078 -0.4423019857400318 9.09633802963199
224 0.2351487427697069 0.44125397309693 9.101492240270096
225 -0.0328033423912182 0.4989227803257379 9.522142728403148
226 0.2102859001793603 -0.4536296288667178 2.045621579713151
227 0.2469467983633101 0.4347611744143107 0.6208835231433386
228 0.01751545895661379 0.4996931145188406 0.7392562224909112
229 0.4309505270232494 0.2535382481172882 8.965342588092385
230 0.2302851562002386 0.4438116118735873 9.368820621211356
231 0.4339070675130166 -0.2484444742035018 8.96400797624724
232 0.4357116851475196 -0.2452658301229683 1.02998590147891
233 0.2597267590362011 -0.4272493541721873 0.8834081060000875
234 0.2498610614779667 -0.4330928883705016 0.6213854117497776
235 0.008646298321680512 -0.4999252359356672 0.7438115739672726
236 0.01121449408973229 -0.4998742193015273 1.025008223442363
237 -0.03152214591846058 -0.4990053650179477 0.4527446539687531
238 -0.2565379055650805 -0.4291716474888361 0.8797105459809077
239 -0.4370886685546149 0.2428034098219257 9.235069942876613
240 0.2517194595726869 -0.4320154090682813 1.172620387891315
241 0.2290834869035198 -0.4444330726083792 1.456174595691076
242 0.4274260526572255 -0.2594358678168126 1.611247951724159
243 -0.03562960507463686 -0.4987289155866395 1.316115891935692
244 -0.2793896550946375 -0.4146581973458374 9.346730809463473
245 -0.03501500814408482 -0.4987724423067795 9.513385328436462
246 0.2284615354781422 -0.4447531076979334 9.366427157874341
247 -0.4397464069714848 -0.2379560832499756 8.063924512088974
248 -0.2663088158004313 -0.4231779940249398 7.916835684940485
249 -0.2666112656987972 -0.4229875092747838 7.62370004285984
250 -0.02419705527242744 -0.4994141593068253 7.770023123014971
251 -0.0239459629488636 -0.499426261682795 8.063319316685536
252 -0.01422753087829114 -0.4997975363735873 7.479337910274696
253 0.2375326824592638 -0.4399752547174745 7.928330104407567
254 -0.2657520807876093 -0.4235278403565178 8.209589475665009
255 0.4349417445638933 0.2466286253372001 7.50119384296742
256 0.2568314927711384 0.4289960190036134 7.355751596377162
257 0.2553536375174382 0.4298773311150668 7.057501051178731
258 0.008312075916822365 0.4999309046197814 7.200895853401287
259 0.4349821893416266 0.2465572853427076 8.382394964255525
260 0.2547253091579166 0.4302499469778048 8.52676029368534
261 0.2539937335482385 0.4306822300934024 8.23437832632167
262 0.4344960085561264 0.2474130525028834 8.090361274549668
263 0.2570344984736477 0.4288744182093406 7.944984599601922
264 0.2568263093643971 0.4289991221649095 7.650798194250388
265 0.01310367947694719 0.499828264090943 7.80031836900168
266 0.01000806782212274 0.4998998285441472 7.504311254681773
267 -0.4985815209165446 0.03763598013264929 1.460186986275427
268 0.435349333519265 0.2459084337804049 1.322752711550038
269 0.4350582234701598 0.2464230958960391 1.616311278497139
270 -0.2460273114674772 0.4352821636732718 7.922398604558641
271 0.4335886183347361 -0.2489998193785982 8.381569171803001
272 0.2415599376637151 -0.437777108259331 8.223190926542465
273 0.4262408467899814 -0.2613785387665934 7.790749889856613
274 -0.008493493328990302 -0.4999278553662222 8.35957574492334
275 0.2472584235782093 -0.4345840217606013 8.513587376721588
276 -0.2572847613651902 0.4287243305076784 8.508777224432484
277 0.4348994644251287 0.2467031735562723 6.912517972635058
278 0.2525066177251986 0.4315557994106677 6.756025975571007
279 -0.4982971338865687 0.04123064831446471 1.169965368355051
280 -0.4159742348850539 0.2774264513556594 1.316343494216023
281 -0.4410666664461212 -0.23549988481973 8.648451140658127
282 0.4271458587869661 -0.2598969321118377 2.20141551538089
283 0.4224899601862478 -0.2673990155962111 2.501501683921884
284 -0.2478908990198081 0.4342235624458342 7.335904886271743
285 -0.2458596693910946 0.4353768746349554 6.747552068729219
286 0.004772348685911218 0.4999772241692816 6.901991023618714
287 -0.441897057598756 -0.2339380056458585 6.596005423380866
288 -0.269853823541949 -0.420926257104247 6.448509424070477
289 -0.26900864873379 -0.4214668989451252 6.742407033468906
290 -0.02434090191983001 -0.4994071690451882 6.594861273650558
291 -0.02436286920576392 -0.4994060978843399 6.300291796587449
292 -0.02669831599019754 -0.4992866911137203 6.888614361009967
293 0.2362088618002764 -0.4406873876196344 6.749484225950528
294 -0.4413023340100813 -0.2350579715671319 6.890261392308797
295 0.4347250259561521 -0.2470104285398146 7.202914499586117
296 0.2486106376710902 -0.433811884158069 7.046023111988672
297 -0.0004157766626304043 -0.499999827129737 7.18167418460721
298 0.429736623526242 -0.2555903644511368 6.608394478105762
299 -0.4269533999197282 0.2602129787250909 6.01096651397624
300 -0.4262961678865922 0.2612883029245786 5.717076146984908
301 -0.270309238013953 -0.4206339451878748 6.154440069939846
302 -0.02804889671408084 -0.4992126394564974 6.006445613856622
303 -0.03121021776827409 -0.4990249716265278 5.715285830940201
304 0.219306616564106 -0.4493379662694931 5.860546397545044
305 0.233009957653213 -0.4423871151315868 5.579176644961963
306 0.2244102326420178 -0.4468109751176166 6.153134995999713
307 0.4208210498536394 -0.2700178586687938 6.018492778850937
308 0.2338379943521129 -0.4419499885704051 6.454375006206546
309 0.2501844093642591 0.4329061807263288 6.459860862674804
310 0.435475467966091 -0.2456849950642368 4.559466991240426
311 0.2577170818399142 -0.4284645909849715 4.412849740348221
312 0.2571028049731373 -0.4288334731279088 4.118236780304465
313 0.007105606633929706 -0.4999495078049021 4.263268688229286
314 0.01210912195225457 -0.4998533476586362 3.971654310624078
315 0.2549664715318231 -0.4301070778243623 3.824516784045647
316 -0.2423165170892936 -0.4373587835470029 4.11523094484669
317 0.003115717021283439 -0.4999902922132022 4.556520233644594
318 0.2578385726016845 -0.4283914920708929 4.707188108208998
319 0.2619237857593985 -0.4259060112905954 4.999490499403405
320 0.008316111212955347 -0.4999308375108438 4.848111685099426
321 -0.003290667728823699 -0.4999891713886396 5.131469561488985
322 -0.2560412107445751 -0.4294681576094461 4.982922449994555
323 0.4377190533306031 -0.2416651202622352 5.146450333409808
324 0.4341919193301783 0.2479463191668228 6.025603428202577
325 0.4335880430568445 0.2490008211194011 6.323961973501936
326 0.4336158214092342 -0.2489524441004649 3.090619195838278
327 0.2579892794191625 -0.428300749129372 3.237637360254981
328 0.246428149541711 -0.4350553609754144 2.946711041561048
329 -0.006634486855270092 -0.4999559816465518 3.084129130962601
330 0.002236240859193195 -0.4999949992018117 3.37877273539084
331 -0.26169168372895 -0.4260486623228704 3.518577244478664
332 -0.004192637540795827 -0.4999824214814472 3.673634135899974
333 0.4351211072664372 0.2463120419533517 5.441176470588244
334 0.2572686661895189 0.4287339890853837 5.290929110654974
335 0.2573251399247912 0.428700096060972 4.999496992944682
336 0.009598917484399774 0.4999078522919276 5.14153541219993
337 0.01157167862125175 0.4998660783188698 4.848419268097462
338 0.435280957317584 -0.246029445791937 3.676699879754346
339 0.4350382711379457 -0.2464583182716851 3.971012993685461
340 0.4349430331534934 0.2466263528320507 4.853546309841024
341 0.2572338002988128 0.4287549089909414 4.705244836789272
342 0.2569310714663761 0.4289363874925278 4.412118492781401
343 0.4345953865116 0.2472384477034933 4.265308693506037
344 0.2567133097283419 0.4290667507606717 4.118013732329948
345 0.2567909932642352 0.4290202626664241 3.823997606290574
346 0.01392671698196721 0.4998060089215657 3.968967549274834
347 0.01331987975211885 0.4998225493146434 3.673837773027638
348 0.2569531767423404 0.4289231457522659 3.529393009068981
349 0.01246829401806987 0.4998445174694617 3.377241754741762
350 0.01256086682320441 0.4998421997237225 4.260410277640188
351 -0.2715333598283322 -0.4198447742920441 5.5697654125676
352 0.4348695053325224 0.246755979323394 3.676758867912997
353 0.4345525425767338 0.2473137435325744 3.382956235056158
354 0.2566917758713084 0.4290796338676936 3.235463940265402
355 0.01258303417874479 0.4998416421736554 3.083942171341963
356 0.2567136582748378 0.4290665422229398 2.940296429265194
357 0.434289535723722 0.2477752997392476 2.794719650351221
358 0.4352349864781908 0.2461107607264036 2.20235121616241
359 -0.4249436573384167 0.2634822348619548 5.128883798698035
360 -0.4235824289694137 0.2656650633191568 4.542056698368485
361 0.25392472573101 0.4307229198248351 5.873108604600575
362 -0.4214987200871899 0.2689587867403866 3.957102055759139
363 -0.4403029311247041 -0.2369247324425925 7.477582382836439
364 -0.2638866041418283 -0.424692665529432 7.330667434073164
365 -0.2650521534041651 -0.4239662203239958 7.035941279586127
366 -0.4210368119725115 0.2696812988770708 3.365481609517317
367 -0.4197981143547903 0.2716054918151738 2.777178685311165
368 0.0007079783276075232 0.4999994987664364 8.080184375406313
369 0.01219935590652332 0.4998511535602033 4.555228293615391
370 -0.2734305552751303 -0.4186116714115051 2.925672090769554
371 0.2428045927839231 -0.4370880114153593 7.637425240702573
372 -0.2889215924311912 -0.408073906819616 2.040952923188551
373 -0.4511279042649624 -0.2156005890379312 2.18893780840822
374 -0.4532858510252059 -0.2110259160869936 1.024775584984289
375 -0.04907202592052104 -0.4975861094042475 1.895748554913258
376 -0.2306830366679048 0.4436049330132321 2.046289192999717
377 -0.2329522269661992 0.4424175176815317 2.927864209934802
378 -0.2424823292861802 0.4372668750133589 5.572769514531256
379 -0.2411409600780605 0.4380080334567292 5.280485108059003
380 -0.2395470944131906 0.4388817489463397 4.983585588772046
381 0.2546335425258335 -0.430304263307656 3.529199487177763
382 0.01630684396134921 0.4997340160925812 2.193847893784891
383 0.2587843931306274 0.4278208011212322 1.465890330126766
384 0.2585667879787461 0.4279523526683247 1.758421574985213
385 0.2583701128760063 0.4280711211614721 2.05038230766064
386 -0.2660010982690141 -0.423371486663519 8.503059920236719
387 0.2197027772178183 -0.4491443973632285 1.754395859150528
388 0.2548325978326886 0.4301864096898497 5.582244100383494
389 0.006752079686182412 0.4999544073412209 5.431704221735416
390 -0.2643155292983816 -0.4244258486140027 4.403560491812415
391 0.2353945209005637 0.4411229075099071 8.811968234100979
392 -0.005709173913189538 0.4999674042707474 8.371448550954165
393 -0.2377826225471934 0.4398402260077845 4.693529736755967
394 0.07321684092204994 -0.4946102447436721 9.777771612728241
395 0.2466473085041775 -0.4349311499624338 5.28519750587994
396 0.4248328993309212 -0.2636607813954957 5.728190647111621
397 0.2474131811018205 -0.4344959353286033 7.340053229656221
398 0.242809971417446 -0.4370850235140287 8.806255672309216
399 -0.2364479104633468 0.4405591738206312 4.401053672676881
400 -0.01876592471853295 -0.4996477159654173 5.426838055754903
401 -0.2327751506212148 0.4425107108910142 4.110822032974763
402 -0.2333773458721483 0.4421934129243353 3.81285097313836
403 0.2580272666297783 0.4282778650310629 2.641523005630869
404 0.2586984650887095 0.4278727663228238 2.346122016280149
405 -0.4998981585999092 -0.01009113613128034 0.2104512290787347
406 -0.2151478538926241 0.4513439940504338 0.3026117469314346
407 -0.2343367009745587 0.4416857599882073 3.519036832843252
408 -0.2346132170093995 0.4415389432479319 3.223001283540565
409 0.227457006783228 -0.445267683607529 2.641945453525222
410 0.423689856568976 0.2654937013199382 9.561943443081423
411 0.4237507077465868 -0.2653965668283348 9.561354603805032
412 0.4258874167915108 -0.2619540192832588 0.436679590276565
413 0.07360344791341457 0.4945528611334255 9.779529601535108
414 0.3255304754843947 0.3795127264412932 0.2032387605998849
415 -0.417893926874662 -0.2745262571800277 9.771277272148108
416 -0.420626766415592 -0.2703204087277966 0.2079694403094349
417 0.01321058407996187 0.4998254500005639 0.4834001001915488
418 0.07115741913663892 -0.4949107209404669 0.2036779899702486
419 -0.399827930184412 0.3002292894513274 0.4897651361892293
420 -0.4161520254076426 0.2771596863707217 9.78856300322664
421 0.4579656253266049 0.2006676008208892 9.800953002553353
422 0.4583556516870067 -0.1997751149832716 9.791111601101505
423 0.4582689418420897 -0.1999739406596055 0.2038113439505896
424 0.4584575257157192 0.1995412165809879 0.1992496451952994
425 0.1997147883270672 0.4583819404421107 9.60228521273747
426 0.202494454772696 -0.4571607986106295 9.60126395558491
427 -0.3411094080736893 -0.3655740304283351 0.3821896367365653
428 -0.3083931970736372 -0.3935652881018609 9.577272746909673
429 -0.2953653866007426 0.4034343669027142 9.583002690310458
430 0.2138952331188975 0.4519389662874982 0.3875816698508997
431 -0.4859471618279733 0.1177087758467378 0.4086351949218346
432 0.2098900159482537 -0.4538129363573077 0.3935957456253714
433 -0.2462980499359858 0.005817773906194606 10
434 0.2534841245473864 0.07912701855817919 10
435 0.03717128595815819 -0.2585319725622809 10
436 -0.1690758746838556 0.2161414360945108 10
437 0.003292762832187233 -0.0005756093743146109 10
438 0.1074796444126018 0.2524566621039832 10
439 0.236616781571957 -0.1520643720594606 10
440 -0.1806947123436967 -0.2111569324281178 10
441 -0.2462980499359858 0.005817773906194606 0
442 0.2534841245473864 0.07912701855817919 0
443 0.03717128595815819 -0.2585319725622809 0
444 -0.1690758746838556 0.2161414360945108 0
445 0.003292762832187233 -0.0005756093743146109 0
446 0.1074796444126018 0.2524566621039832 0
447 0.236616781571957 -0.1520643720594606 0
448 -0.1806947123436967 -0.2111569324281178 0
449 -5.436717353474174e-05 0.0004975187206078258 0.954346472941295
450 -0.00123884928566248 0.0004297693873486219 1.825324233053065
451 -0.001174506825574989 0.0003922122365442871 2.410176726475862
452 -0.001281656112057383 0.0003863475960835805 6.23065422368294
453 0.0002218750795405233 6.287422547668342e-05 4.191470878598428
454 -0.001476300817772835 -0.001043835442416985 7.989953792426667
455 -0.001939485942953678 0.000460761848418461 5.643014254975768
456 2.102501547118774e-05 8.712296106466733e-06 3.456189316421558
457 0.001418533231887287 0.0009121052226517823 4.778812985853692
458 -0.002986718877597716 0.002136653759599982 8.723433714919938
459 -0.002159149562049989 0.0003149477011592516 7.406033492821031
460 -0.001592306873928029 0.0003663079117467716 6.818446920969
461 0.0006061560213291572 0.0002816985611381329 2.910508263282953
462 2.822016966991248e-05 3.857253518013692e-05 9.223466233581723
463 -0.01106841111062323 0.02260235732604166 0.477103278437824
464 -0.04542250504875162 0.0505675908748798 1.389778357581086
465 0.07014304566500101 0.01283730949585561 5.21119353274872
466 -0.02470919489310354 0.1057724983197421 9.611927845528896
467 0.1148728623029754 0.06512070155397902 3.823793957677205
468 -0.1329619521712995 0.002016841120748514 8.356418171059746
469 0.1659682179459366 0.05562483655990644 7.11240695768022
470 -0.1669832537701134 0.05580705584846127 2.117772274988419
471 -0.1707729873417999 -0.03905889316707524 6.524459733108582
472 -0.1218777553789003 0.1259877131214671 5.936984772154251
473 0.1358708492624232 0.112617746841412 7.698095536368831
474 0.1693333072628085 -0.04492404401573671 4.484864261521858
475 -0.1702385588553607 0.04235461495421766 4.485429914307866
476 -0.171553940125587 -0.04160196292375141 7.698096175992693
477 -0.1707909449942993 -0.04001974785944166 7.112073727132506
478 0.1038051531090365 -0.17146638594049 9.701142117043968
479 0.1411796498269738 0.09984305154405404 6.524629336909361
480 0.03949353183926224 -0.1728052391009194 5.941380475838439
481 0.2000962883135422 0.00890938865587443 8.382352941176471
482 0.1708857329057146 0.05658020187168919 2.110677766584512
483 -0.1437494592271427 0.1241479686211217 3.183256346279702
484 0.1799947074629582 0.06254142372839148 3.187263961634148
485 -0.1950331343121567 0.03217815977451094 3.928798223985496
486 -0.1333957185721647 -0.150834071569188 8.973607916138189
487 0.1701727015411275 0.1166437825880614 2.659761534633169
488 -0.03536177931627513 -0.1876088556094243 3.186928482716356
489 -0.1982786850218249 0.03566897557141563 5.389145072776578
490 -0.1835470361806419 0.08646203782069718 2.661013744525097
491 -0.1640442255381823 -0.1590526980378263 9.510132951946511
492 0.1063285164605071 -0.1866487861101961 0.2884550529652708
493 -0.1866896930101588 0.07334080014057665 5.028530562525575
494 0.2080426135082064 0.01505973713699332 8.972245290611047
495 -0.1098163636847959 0.1676624218320219 8.974802120860488
496 0.1913126686620006 0.1012710261739798 5.878634089542587
497 0.1957803583191062 0.08835664791243547 1.18760602646081
498 -0.06953172748827841 -0.1806640619062111 3.717432125520878
499 -0.08870270047507808 0.2061203268743632 0.7367823842597709
500 0.2047582587023363 0.02946762228719557 1.584869852399477
501 -0.03621440135690859 -0.2014040110567855 2.660425808601788
502 0.2062148201785517 0.02562586503431374 0.7114893697614115
503 -0.1403956200312989 -0.1673408136563985 1.597228169256109
504 0.00151923608524248 -0.2082348251501311 2.064834370076165
505 0.1823285832969458 0.1328744881188519 0.282159009594666
506 -0.1204042137340933 0.192793037150853 3.667177765167148
507 0.09568059623816573 -0.1907892529054104 7.761401889748159
508 0.08851322373154524 -0.2017127124757804 6.595377448719833
509 0.04521279089008701 -0.1917132549060103 1.204123305827371
510 -0.04034090050077141 -0.2036836225285548 5.012909654901748
511 0.09032711107591293 -0.2077742686727659 5.430343766104373
512 0.0299948442812026 0.2185191328972524 8.206244897189437
513 0.01632802143487991 -0.2247824739119412 8.510145084675015
514 0.103457721435628 -0.2053226482180986 3.971514599482387
515 0.1993059149086842 -0.02452860681124891 9.452251292370359
516 0.09727939453915141 0.2088262782474139 5.443444607310456
517 0.007231920598050803 0.2269189622466438 8.513218928020789
518 -0.0207246156295827 -0.190259572631603 0.7067274541050047
519 0.007002854682960998 -0.2253528510143661 8.201702659943233
520 -0.2190160915742294 -0.0674489515540706 0.2859618748785988
521 -0.2071397959166842 0.1007378443873793 1.14420161539761
522 -0.07664981317158193 0.2174576538948083 1.635057557653538
523 0.03868117081672912 0.2278427843029704 4.380446910510813
$EndNodes
$Elements
1583
1 4 2 1 1 335 457 340 465
2 4 2 1 1 29 340 457 465
3 4 2 1 1 297 459 397 469
4 4 2 1 1 58 29 457 510
5 4 2 1 1 297 459 469 477
6 4 2 1 1 29 465 457 510
7 4 2 1 1 457 465 335 493
8 4 2 1 1 239 462 217 466
9 4 2 1 1 415 433 440 491
10 4 2 1 1 258 469 459 477
11 4 2 1 1 434 466 421 478
12 4 2 1 1 337 457 335 493
13 4 2 1 1 390 474 453 475
14 4 2 1 1 296 469 460 477
15 4 2 1 1 181 460 286 469
16 4 2 1 1 457 474 317 475
17 4 2 1 1 258 459 284 477
18 4 2 1 1 460 469 181 477
19 4 2 1 1 313 453 390 474
20 4 2 1 1 58 323 29 510
21 4 2 1 1 70 335 340 465
22 4 2 1 1 217 462 200 466
23 4 2 1 1 222 239 217 466
24 4 2 1 1 182 285 471 479
25 4 2 1 1 323 465 29 510
26 4 2 1 1 182 196 285 479
27 4 2 1 1 29 70 340 465
28 4 2 1 1 460 471 285 479
29 4 2 1 1 176 457 317 475
30 4 2 1 1 296 460 292 477
31 4 2 1 1 270 473 454 476
32 4 2 1 1 297 397 296 469
33 4 2 1 1 181 469 258 477
34 4 2 1 1 335 465 336 493
35 4 2 1 1 421 434 89 466
36 4 2 1 1 337 335 336 493
37 4 2 1 1 297 469 296 477
38 4 2 1 1 206 499 449 518
39 4 2 1 1 24 456 338 467
40 4 2 1 1 134 472 136 480
41 4 2 1 1 455 472 134 480
42 4 2 1 1 200 462 230 466
43 4 2 1 1 317 474 390 475
44 4 2 1 1 181 258 284 477
45 4 2 1 1 421 478 466 515
46 4 2 1 1 344 453 346 467
47 4 2 1 1 195 182 452 479
48 4 2 1 1 262 454 40 481
49 4 2 1 1 196 460 285 479
50 4 2 1 1 182 471 452 479
51 4 2 1 1 313 390 317 474
52 4 2 1 1 434 421 45 478
53 4 2 1 1 178 473 270 476
54 4 2 1 1 346 467 453 485
55 4 2 1 1 156 157 158 458
56 4 2 1 1 217 200 225 466
57 4 2 1 1 338 467 456 498
58 4 2 1 1 373 109 112 470
59 4 2 1 1 346 453 401 485
60 4 2 1 1 189 384 385 450
61 4 2 1 1 137 452 136 472
62 4 2 1 1 352 353 24 456
63 4 2 1 1 154 247 152 454
64 4 2 1 1 301 136 452 480
65 4 2 1 1 136 137 138 452
66 4 2 1 1 156 158 281 458
67 4 2 1 1 181 286 258 469
68 4 2 1 1 343 344 82 453
69 4 2 1 1 40 262 39 454
70 4 2 1 1 352 348 353 456
71 4 2 1 1 352 456 24 467
72 4 2 1 1 141 452 182 471
73 4 2 1 1 382 451 184 470
74 4 2 1 1 343 82 26 453
75 4 2 1 1 140 134 136 480
76 4 2 1 1 141 183 182 452
77 4 2 1 1 136 138 301 452
78 4 2 1 1 28 29 340 457
79 4 2 1 1 189 470 450 482
80 4 2 1 1 153 154 152 454
81 4 2 1 1 373 112 188 451
82 4 2 1 1 28 58 29 457
83 4 2 1 1 135 134 133 455
84 4 2 1 1 300 135 133 455
85 4 2 1 1 352 348 456 467
86 4 2 1 1 59 338 24 456
87 4 2 1 1 297 296 292 477
88 4 2 1 1 28 340 81 457
89 4 2 1 1 136 472 452 480
90 4 2 1 1 105 103 376 522
91 4 2 1 1 207 463 499 518
92 4 2 1 1 149 148 147 459
93 4 2 1 1 82 453 344 467
94 4 2 1 1 184 382 215 451
95 4 2 1 1 140 455 134 480
96 4 2 1 1 154 247 454 468
97 4 2 1 1 156 157 458 468
98 4 2 1 1 369 457 393 523
99 4 2 1 1 382 404 451 482
100 4 2 1 1 340 341 81 457
101 4 2 1 1 381 338 456 498
102 4 2 1 1 142 145 143 460
103 4 2 1 1 82 26 453 467
104 4 2 1 1 373 112 451 470
105 4 2 1 1 109 451 112 470
106 4 2 1 1 105 376 470 522
107 4 2 1 1 385 189 450 482
108 4 2 1 1 288 301 138 452
109 4 2 1 1 183 195 182 452
110 4 2 1 1 335 341 340 457
111 4 2 1 1 382 470 189 482
112 4 2 1 1 195 183 204 452
113 4 2 1 1 404 215 382 451
114 4 2 1 1 76 37 459 473
115 4 2 1 1 153 154 454 468
116 4 2 1 1 281 156 458 468
117 4 2 1 1 341 457 369 523
118 4 2 1 1 147 459 148 477
119 4 2 1 1 311 69 312 453
120 4 2 1 1 384 385 450 482
121 4 2 1 1 143 142 460 471
122 4 2 1 1 135 455 300 472
123 4 2 1 1 257 286 460 469
124 4 2 1 1 134 140 351 455
125 4 2 1 1 457 475 393 523
126 4 2 1 1 153 152 151 454
127 4 2 1 1 278 257 460 469
128 4 2 1 1 135 134 455 472
129 4 2 1 1 204 452 183 472
130 4 2 1 1 451 470 382 482
131 4 2 1 1 421 45 478 515
132 4 2 1 1 28 457 81 474
133 4 2 1 1 369 341 337 457
134 4 2 1 1 348 456 349 484
135 4 2 1 1 335 337 341 457
136 4 2 1 1 69 453 311 474
137 4 2 1 1 151 454 152 476
138 4 2 1 1 346 453 344 523
139 4 2 1 1 341 81 457 474
140 4 2 1 1 286 278 257 460
141 4 2 1 1 145 460 181 477
142 4 2 1 1 138 288 452 471
143 4 2 1 1 373 451 188 470
144 4 2 1 1 142 285 145 460
145 4 2 1 1 59 381 338 456
146 4 2 1 1 393 369 337 457
147 4 2 1 1 76 459 397 507
148 4 2 1 1 397 459 295 469
149 4 2 1 1 75 40 454 481
150 4 2 1 1 346 401 453 523
151 4 2 1 1 270 153 151 454
152 4 2 1 1 348 349 354 484
153 4 2 1 1 341 474 457 523
154 4 2 1 1 249 459 363 476
155 4 2 1 1 200 230 225 466
156 4 2 1 1 178 459 473 476
157 4 2 1 1 270 454 151 476
158 4 2 1 1 433 466 437 478
159 4 2 1 1 444 505 463 520
160 4 2 1 1 288 291 301 452
161 4 2 1 1 140 303 351 455
162 4 2 1 1 346 350 401 523
163 4 2 1 1 142 285 460 471
164 4 2 1 1 135 136 134 472
165 4 2 1 1 252 397 459 507
166 4 2 1 1 376 189 382 470
167 4 2 1 1 195 204 214 452
168 4 2 1 1 206 208 499 518
169 4 2 1 1 176 317 390 475
170 4 2 1 1 145 285 181 460
171 4 2 1 1 303 455 140 480
172 4 2 1 1 214 452 204 472
173 4 2 1 1 288 291 452 471
174 4 2 1 1 364 459 297 477
175 4 2 1 1 256 459 258 469
176 4 2 1 1 371 76 397 507
177 4 2 1 1 178 149 459 476
178 4 2 1 1 294 365 289 460
179 4 2 1 1 171 367 377 483
180 4 2 1 1 265 454 270 473
181 4 2 1 1 285 196 286 460
182 4 2 1 1 252 459 249 476
183 4 2 1 1 126 128 457 475
184 4 2 1 1 278 286 196 460
185 4 2 1 1 75 40 39 454
186 4 2 1 1 262 454 481 512
187 4 2 1 1 285 286 181 460
188 4 2 1 1 76 38 37 473
189 4 2 1 1 149 147 284 459
190 4 2 1 1 42 62 41 458
191 4 2 1 1 317 457 318 474
192 4 2 1 1 393 457 337 493
193 4 2 1 1 255 459 256 469
194 4 2 1 1 367 461 377 483
195 4 2 1 1 404 79 451 482
196 4 2 1 1 142 182 285 471
197 4 2 1 1 311 312 313 453
198 4 2 1 1 249 364 363 459
199 4 2 1 1 196 278 460 479
200 4 2 1 1 103 189 376 522
201 4 2 1 1 188 470 451 504
202 4 2 1 1 294 365 460 477
203 4 2 1 1 106 169 450 470
204 4 2 1 1 295 76 37 459
205 4 2 1 1 252 371 397 507
206 4 2 1 1 63 42 41 458
207 4 2 1 1 219 463 207 518
208 4 2 1 1 284 459 147 477
209 4 2 1 1 452 471 291 508
210 4 2 1 1 327 456 59 488
211 4 2 1 1 176 126 457 475
212 4 2 1 1 452 472 214 496
213 4 2 1 1 325 214 324 452
214 4 2 1 1 37 295 459 469
215 4 2 1 1 37 459 255 469
216 4 2 1 1 262 454 263 473
217 4 2 1 1 96 497 97 521
218 4 2 1 1 381 59 327 456
219 4 2 1 1 178 459 266 473
220 4 2 1 1 308 452 291 508
221 4 2 1 1 393 337 380 493
222 4 2 1 1 313 311 453 474
223 4 2 1 1 89 434 438 466
224 4 2 1 1 33 480 452 496
225 4 2 1 1 355 377 216 461
226 4 2 1 1 247 454 248 476
227 4 2 1 1 406 463 444 505
228 4 2 1 1 184 451 215 490
229 4 2 1 1 377 461 367 490
230 4 2 1 1 134 455 351 489
231 4 2 1 1 295 397 76 459
232 4 2 1 1 184 451 110 470
233 4 2 1 1 141 137 452 471
234 4 2 1 1 137 141 452 472
235 4 2 1 1 252 397 297 459
236 4 2 1 1 148 459 149 476
237 4 2 1 1 459 476 252 507
238 4 2 1 1 397 295 296 469
239 4 2 1 1 26 343 453 474
240 4 2 1 1 324 452 214 496
241 4 2 1 1 357 356 461 484
242 4 2 1 1 384 450 60 482
243 4 2 1 1 355 216 356 461
244 4 2 1 1 178 265 270 473
245 4 2 1 1 39 454 262 473
246 4 2 1 1 255 459 37 473
247 4 2 1 1 143 460 145 477
248 4 2 1 1 249 252 364 459
249 4 2 1 1 346 344 350 523
250 4 2 1 1 381 456 327 488
251 4 2 1 1 456 467 348 506
252 4 2 1 1 355 461 356 484
253 4 2 1 1 214 195 452 479
254 4 2 1 1 62 41 458 481
255 4 2 1 1 433 437 440 478
256 4 2 1 1 294 460 289 471
257 4 2 1 1 58 457 318 510
258 4 2 1 1 336 465 379 493
259 4 2 1 1 278 460 277 469
260 4 2 1 1 378 455 213 472
261 4 2 1 1 252 297 364 459
262 4 2 1 1 256 266 258 459
263 4 2 1 1 230 466 462 515
264 4 2 1 1 63 458 41 481
265 4 2 1 1 31 30 511 516
266 4 2 1 1 357 80 356 484
267 4 2 1 1 118 456 117 483
268 4 2 1 1 207 499 208 518
269 4 2 1 1 393 457 165 475
270 4 2 1 1 233 449 232 502
271 4 2 1 1 73 255 256 469
272 4 2 1 1 122 453 166 475
273 4 2 1 1 453 467 26 514
274 4 2 1 1 77 460 296 469
275 4 2 1 1 176 126 128 457
276 4 2 1 1 96 449 94 497
277 4 2 1 1 318 457 58 474
278 4 2 1 1 39 262 61 473
279 4 2 1 1 326 484 461 488
280 4 2 1 1 444 463 406 520
281 4 2 1 1 118 498 456 506
282 4 2 1 1 118 119 456 498
283 4 2 1 1 451 482 282 504
284 4 2 1 1 241 503 500 509
285 4 2 1 1 458 468 157 517
286 4 2 1 1 454 468 247 519
287 4 2 1 1 76 473 459 507
288 4 2 1 1 281 468 458 513
289 4 2 1 1 412 492 502 505
290 4 2 1 1 152 454 247 476
291 4 2 1 1 183 452 141 472
292 4 2 1 1 109 110 451 470
293 4 2 1 1 153 468 454 512
294 4 2 1 1 78 452 308 508
295 4 2 1 1 138 452 137 471
296 4 2 1 1 277 460 278 479
297 4 2 1 1 26 453 69 474
298 4 2 1 1 348 353 456 484
299 4 2 1 1 291 308 306 452
300 4 2 1 1 58 457 28 474
301 4 2 1 1 200 462 217 495
302 4 2 1 1 357 461 22 484
303 4 2 1 1 148 363 459 476
304 4 2 1 1 178 149 284 459
305 4 2 1 1 379 465 336 516
306 4 2 1 1 404 358 79 482
307 4 2 1 1 117 118 119 456
308 4 2 1 1 277 35 460 479
309 4 2 1 1 59 456 24 484
310 4 2 1 1 341 81 474 523
311 4 2 1 1 325 324 33 452
312 4 2 1 1 363 148 459 477
313 4 2 1 1 123 390 453 475
314 4 2 1 1 158 458 157 495
315 4 2 1 1 178 270 151 476
316 4 2 1 1 294 460 143 477
317 4 2 1 1 207 206 208 499
318 4 2 1 1 300 455 378 472
319 4 2 1 1 456 484 59 488
320 4 2 1 1 143 460 294 471
321 4 2 1 1 127 457 128 475
322 4 2 1 1 113 114 115 461
323 4 2 1 1 377 461 355 483
324 4 2 1 1 464 503 202 509
325 4 2 1 1 181 284 147 477
326 4 2 1 1 385 382 189 482
327 4 2 1 1 291 301 452 480
328 4 2 1 1 33 452 324 496
329 4 2 1 1 365 292 289 460
330 4 2 1 1 22 461 326 484
331 4 2 1 1 456 483 349 484
332 4 2 1 1 357 461 356 487
333 4 2 1 1 312 453 69 514
334 4 2 1 1 262 263 61 473
335 4 2 1 1 115 461 114 483
336 4 2 1 1 33 307 452 480
337 4 2 1 1 265 454 263 512
338 4 2 1 1 363 459 364 477
339 4 2 1 1 22 71 326 461
340 4 2 1 1 58 319 323 510
341 4 2 1 1 355 483 461 484
342 4 2 1 1 326 461 328 488
343 4 2 1 1 165 457 127 475
344 4 2 1 1 458 486 398 494
345 4 2 1 1 320 318 317 457
346 4 2 1 1 122 123 453 475
347 4 2 1 1 98 96 97 521
348 4 2 1 1 284 258 266 459
349 4 2 1 1 69 453 26 514
350 4 2 1 1 349 483 456 506
351 4 2 1 1 349 407 483 506
352 4 2 1 1 288 291 471 508
353 4 2 1 1 216 461 377 490
354 4 2 1 1 79 20 451 482
355 4 2 1 1 214 472 204 496
356 4 2 1 1 75 481 454 519
357 4 2 1 1 387 450 500 503
358 4 2 1 1 190 451 211 504
359 4 2 1 1 78 33 452 479
360 4 2 1 1 109 112 451 490
361 4 2 1 1 349 456 348 506
362 4 2 1 1 300 378 455 489
363 4 2 1 1 188 451 112 501
364 4 2 1 1 384 60 385 482
365 4 2 1 1 292 460 365 477
366 4 2 1 1 263 454 265 473
367 4 2 1 1 270 153 454 512
368 4 2 1 1 248 454 247 519
369 4 2 1 1 211 451 282 504
370 4 2 1 1 179 458 157 517
371 4 2 1 1 117 456 119 498
372 4 2 1 1 373 470 188 504
373 4 2 1 1 387 500 241 503
374 4 2 1 1 308 78 306 452
375 4 2 1 1 465 489 379 493
376 4 2 1 1 384 60 450 500
377 4 2 1 1 256 459 255 473
378 4 2 1 1 281 458 158 486
379 4 2 1 1 421 89 410 466
380 4 2 1 1 24 456 353 484
381 4 2 1 1 87 440 478 491
382 4 2 1 1 393 165 457 493
383 4 2 1 1 306 452 307 480
384 4 2 1 1 449 497 96 521
385 4 2 1 1 94 449 96 499
386 4 2 1 1 401 453 166 485
387 4 2 1 1 106 450 169 503
388 4 2 1 1 118 366 456 483
389 4 2 1 1 73 37 255 469
390 4 2 1 1 22 461 357 487
391 4 2 1 1 384 450 189 522
392 4 2 1 1 78 479 452 508
393 4 2 1 1 215 451 404 487
394 4 2 1 1 177 510 489 511
395 4 2 1 1 421 466 410 515
396 4 2 1 1 87 415 440 491
397 4 2 1 1 173 202 503 509
398 4 2 1 1 379 489 465 516
399 4 2 1 1 252 476 249 507
400 4 2 1 1 343 344 453 523
401 4 2 1 1 165 127 457 493
402 4 2 1 1 266 459 256 473
403 4 2 1 1 178 284 266 459
404 4 2 1 1 465 511 30 516
405 4 2 1 1 313 453 312 514
406 4 2 1 1 464 509 202 521
407 4 2 1 1 79 404 451 487
408 4 2 1 1 31 511 455 516
409 4 2 1 1 133 455 134 489
410 4 2 1 1 132 134 351 489
411 4 2 1 1 110 451 184 490
412 4 2 1 1 217 462 239 495
413 4 2 1 1 463 502 492 505
414 4 2 1 1 214 452 325 479
415 4 2 1 1 401 166 453 523
416 4 2 1 1 118 456 366 506
417 4 2 1 1 320 317 176 457
418 4 2 1 1 42 62 458 494
419 4 2 1 1 492 518 463 520
420 4 2 1 1 114 461 113 490
421 4 2 1 1 374 509 449 521
422 4 2 1 1 110 109 451 490
423 4 2 1 1 313 317 311 474
424 4 2 1 1 263 454 262 512
425 4 2 1 1 157 458 179 495
426 4 2 1 1 232 449 233 509
427 4 2 1 1 267 104 106 503
428 4 2 1 1 187 184 215 490
429 4 2 1 1 300 455 133 489
430 4 2 1 1 15 449 232 497
431 4 2 1 1 97 497 464 521
432 4 2 1 1 216 356 461 487
433 4 2 1 1 278 277 257 469
434 4 2 1 1 122 124 123 475
435 4 2 1 1 74 387 450 500
436 4 2 1 1 282 451 20 482
437 4 2 1 1 33 307 480 496
438 4 2 1 1 283 487 451 501
439 4 2 1 1 128 457 127 493
440 4 2 1 1 200 217 180 495
441 4 2 1 1 106 107 169 470
442 4 2 1 1 219 207 208 518
443 4 2 1 1 190 211 191 504
444 4 2 1 1 461 487 71 501
445 4 2 1 1 215 451 487 490
446 4 2 1 1 328 326 71 461
447 4 2 1 1 328 461 192 488
448 4 2 1 1 213 455 378 516
449 4 2 1 1 357 22 80 484
450 4 2 1 1 184 110 108 470
451 4 2 1 1 232 449 15 502
452 4 2 1 1 337 336 380 493
453 4 2 1 1 462 486 198 491
454 4 2 1 1 351 489 455 511
455 4 2 1 1 63 458 398 494
456 4 2 1 1 122 166 124 475
457 4 2 1 1 247 248 163 476
458 4 2 1 1 141 139 137 471
459 4 2 1 1 137 299 141 472
460 4 2 1 1 42 458 63 494
461 4 2 1 1 257 258 286 469
462 4 2 1 1 60 450 18 482
463 4 2 1 1 166 453 122 485
464 4 2 1 1 104 106 503 522
465 4 2 1 1 277 460 35 469
466 4 2 1 1 117 331 456 498
467 4 2 1 1 319 58 318 510
468 4 2 1 1 296 293 292 460
469 4 2 1 1 265 263 368 512
470 4 2 1 1 146 143 145 477
471 4 2 1 1 296 77 293 460
472 4 2 1 1 71 461 22 487
473 4 2 1 1 118 119 498 506
474 4 2 1 1 297 292 365 477
475 4 2 1 1 148 149 150 476
476 4 2 1 1 26 27 343 474
477 4 2 1 1 113 115 370 461
478 4 2 1 1 458 495 391 517
479 4 2 1 1 267 104 503 522
480 4 2 1 1 123 453 316 485
481 4 2 1 1 31 396 455 511
482 4 2 1 1 118 117 116 483
483 4 2 1 1 169 450 470 504
484 4 2 1 1 303 455 480 511
485 4 2 1 1 412 502 14 505
486 4 2 1 1 307 306 78 452
487 4 2 1 1 307 78 33 452
488 4 2 1 1 449 502 233 518
489 4 2 1 1 467 485 346 506
490 4 2 1 1 31 455 496 516
491 4 2 1 1 35 460 77 469
492 4 2 1 1 417 463 406 505
493 4 2 1 1 461 483 115 488
494 4 2 1 1 244 198 486 491
495 4 2 1 1 198 462 223 486
496 4 2 1 1 20 451 283 487
497 4 2 1 1 431 463 207 520
498 4 2 1 1 31 496 56 516
499 4 2 1 1 381 330 456 488
500 4 2 1 1 303 480 305 511
501 4 2 1 1 77 460 35 508
502 4 2 1 1 118 120 119 506
503 4 2 1 1 214 309 195 479
504 4 2 1 1 18 450 60 500
505 4 2 1 1 197 398 210 486
506 4 2 1 1 283 20 282 451
507 4 2 1 1 248 507 454 519
508 4 2 1 1 283 71 487 501
509 4 2 1 1 390 313 316 453
510 4 2 1 1 325 452 33 479
511 4 2 1 1 117 483 456 488
512 4 2 1 1 303 351 455 511
513 4 2 1 1 18 450 74 482
514 4 2 1 1 381 456 330 498
515 4 2 1 1 96 499 449 521
516 4 2 1 1 370 192 461 488
517 4 2 1 1 224 462 200 495
518 4 2 1 1 310 318 58 474
519 4 2 1 1 287 294 289 471
520 4 2 1 1 75 454 39 507
521 4 2 1 1 223 486 462 494
522 4 2 1 1 167 462 185 486
523 4 2 1 1 216 487 461 490
524 4 2 1 1 283 451 211 501
525 4 2 1 1 391 458 62 494
526 4 2 1 1 277 57 35 479
527 4 2 1 1 223 398 486 494
528 4 2 1 1 419 406 463 520
529 4 2 1 1 195 196 182 479
530 4 2 1 1 120 498 119 506
531 4 2 1 1 239 462 167 495
532 4 2 1 1 431 419 207 463
533 4 2 1 1 117 456 331 488
534 4 2 1 1 336 335 334 465
535 4 2 1 1 100 499 96 521
536 4 2 1 1 433 66 420 466
537 4 2 1 1 31 455 396 496
538 4 2 1 1 63 458 481 513
539 4 2 1 1 78 34 33 479
540 4 2 1 1 370 461 192 501
541 4 2 1 1 207 463 419 499
542 4 2 1 1 244 198 186 486
543 4 2 1 1 283 282 211 451
544 4 2 1 1 390 316 123 453
545 4 2 1 1 130 489 177 510
546 4 2 1 1 450 503 106 522
547 4 2 1 1 378 213 209 472
548 4 2 1 1 467 498 338 514
549 4 2 1 1 328 461 71 501
550 4 2 1 1 246 462 198 491
551 4 2 1 1 20 79 451 487
552 4 2 1 1 213 496 455 516
553 4 2 1 1 201 391 495 517
554 4 2 1 1 172 169 372 504
555 4 2 1 1 316 485 453 514
556 4 2 1 1 391 62 458 517
557 4 2 1 1 113 461 370 501
558 4 2 1 1 291 452 306 480
559 4 2 1 1 454 507 75 519
560 4 2 1 1 348 354 353 484
561 4 2 1 1 38 255 37 473
562 4 2 1 1 277 278 57 479
563 4 2 1 1 66 222 466 491
564 4 2 1 1 328 192 461 501
565 4 2 1 1 215 487 187 490
566 4 2 1 1 227 463 430 505
567 4 2 1 1 370 461 115 488
568 4 2 1 1 398 458 63 513
569 4 2 1 1 213 472 455 496
570 4 2 1 1 62 481 458 517
571 4 2 1 1 79 358 20 482
572 4 2 1 1 88 233 232 502
573 4 2 1 1 207 463 219 520
574 4 2 1 1 500 503 464 509
575 4 2 1 1 351 177 489 511
576 4 2 1 1 230 200 224 462
577 4 2 1 1 122 453 123 485
578 4 2 1 1 35 460 479 508
579 4 2 1 1 188 190 451 501
580 4 2 1 1 234 502 492 518
581 4 2 1 1 329 328 192 488
582 4 2 1 1 402 346 485 506
583 4 2 1 1 444 445 505 520
584 4 2 1 1 215 216 187 487
585 4 2 1 1 485 498 120 506
586 4 2 1 1 419 65 406 520
587 4 2 1 1 237 518 492 520
588 4 2 1 1 248 476 454 507
589 4 2 1 1 374 449 238 518
590 4 2 1 1 227 417 430 463
591 4 2 1 1 289 460 292 508
592 4 2 1 1 437 466 434 478
593 4 2 1 1 234 412 492 502
594 4 2 1 1 489 510 465 511
595 4 2 1 1 126 127 128 475
596 4 2 1 1 320 457 176 510
597 4 2 1 1 158 486 458 495
598 4 2 1 1 453 474 343 523
599 4 2 1 1 31 333 30 516
600 4 2 1 1 391 458 494 495
601 4 2 1 1 354 349 483 484
602 4 2 1 1 97 383 464 497
603 4 2 1 1 187 487 216 490
604 4 2 1 1 83 223 462 494
605 4 2 1 1 95 97 96 497
606 4 2 1 1 454 473 39 507
607 4 2 1 1 289 471 460 508
608 4 2 1 1 206 374 449 521
609 4 2 1 1 217 239 180 495
610 4 2 1 1 176 457 128 510
611 4 2 1 1 351 177 132 489
612 4 2 1 1 363 364 162 477
613 4 2 1 1 166 475 453 523
614 4 2 1 1 77 293 460 508
615 4 2 1 1 387 74 450 504
616 4 2 1 1 227 502 463 505
617 4 2 1 1 112 451 490 501
618 4 2 1 1 213 388 496 516
619 4 2 1 1 267 503 464 522
620 4 2 1 1 241 500 64 509
621 4 2 1 1 318 457 320 510
622 4 2 1 1 244 486 185 491
623 4 2 1 1 402 346 401 485
624 4 2 1 1 224 84 462 494
625 4 2 1 1 292 460 293 508
626 4 2 1 1 417 430 463 505
627 4 2 1 1 449 499 206 521
628 4 2 1 1 113 490 461 501
629 4 2 1 1 198 246 223 462
630 4 2 1 1 106 105 107 470
631 4 2 1 1 74 450 18 500
632 4 2 1 1 185 486 462 491
633 4 2 1 1 74 242 387 500
634 4 2 1 1 167 462 486 495
635 4 2 1 1 396 455 480 496
636 4 2 1 1 374 203 449 509
637 4 2 1 1 323 395 465 510
638 4 2 1 1 331 330 456 498
639 4 2 1 1 183 141 299 472
640 4 2 1 1 248 251 507 519
641 4 2 1 1 310 58 28 474
642 4 2 1 1 331 456 330 488
643 4 2 1 1 109 108 110 470
644 4 2 1 1 139 138 137 471
645 4 2 1 1 146 294 143 477
646 4 2 1 1 31 30 72 511
647 4 2 1 1 449 499 94 502
648 4 2 1 1 230 462 84 515
649 4 2 1 1 152 247 163 476
650 4 2 1 1 291 302 301 480
651 4 2 1 1 70 334 335 465
652 4 2 1 1 436 433 420 466
653 4 2 1 1 393 165 360 475
654 4 2 1 1 455 489 378 516
655 4 2 1 1 463 518 219 520
656 4 2 1 1 26 69 27 474
657 4 2 1 1 227 417 463 499
658 4 2 1 1 96 94 95 497
659 4 2 1 1 130 493 489 510
660 4 2 1 1 117 119 331 498
661 4 2 1 1 148 150 363 476
662 4 2 1 1 327 59 484 488
663 4 2 1 1 160 468 153 512
664 4 2 1 1 224 494 462 495
665 4 2 1 1 15 449 497 502
666 4 2 1 1 276 157 155 517
667 4 2 1 1 456 483 366 506
668 4 2 1 1 210 193 486 513
669 4 2 1 1 176 390 126 475
670 4 2 1 1 24 338 25 467
671 4 2 1 1 407 366 483 506
672 4 2 1 1 83 462 246 515
673 4 2 1 1 203 238 449 509
674 4 2 1 1 253 75 507 519
675 4 2 1 1 246 462 491 515
676 4 2 1 1 287 143 294 471
677 4 2 1 1 230 224 84 462
678 4 2 1 1 345 344 346 467
679 4 2 1 1 232 497 449 509
680 4 2 1 1 315 338 498 514
681 4 2 1 1 300 378 209 472
682 4 2 1 1 387 242 241 500
683 4 2 1 1 202 464 267 503
684 4 2 1 1 347 348 345 467
685 4 2 1 1 363 162 148 477
686 4 2 1 1 406 417 212 463
687 4 2 1 1 157 468 155 517
688 4 2 1 1 74 482 450 504
689 4 2 1 1 384 500 450 522
690 4 2 1 1 347 348 467 506
691 4 2 1 1 355 354 349 483
692 4 2 1 1 13 412 14 505
693 4 2 1 1 413 89 438 466
694 4 2 1 1 393 380 165 493
695 4 2 1 1 202 267 464 521
696 4 2 1 1 383 97 464 522
697 4 2 1 1 159 158 157 495
698 4 2 1 1 202 509 203 521
699 4 2 1 1 98 97 99 464
700 4 2 1 1 406 444 85 505
701 4 2 1 1 172 375 503 504
702 4 2 1 1 160 155 153 468
703 4 2 1 1 281 386 468 513
704 4 2 1 1 179 495 458 517
705 4 2 1 1 76 38 473 507
706 4 2 1 1 444 406 65 520
707 4 2 1 1 313 316 453 514
708 4 2 1 1 492 502 463 518
709 4 2 1 1 425 89 413 466
710 4 2 1 1 116 483 117 488
711 4 2 1 1 211 451 190 501
712 4 2 1 1 417 406 85 505
713 4 2 1 1 104 267 280 464
714 4 2 1 1 381 315 338 498
715 4 2 1 1 236 449 233 518
716 4 2 1 1 236 233 449 509
717 4 2 1 1 64 500 497 509
718 4 2 1 1 246 83 223 462
719 4 2 1 1 98 97 464 521
720 4 2 1 1 419 406 212 463
721 4 2 1 1 212 463 417 499
722 4 2 1 1 267 464 104 522
723 4 2 1 1 115 483 116 488
724 4 2 1 1 281 386 161 468
725 4 2 1 1 464 497 383 500
726 4 2 1 1 444 446 85 505
727 4 2 1 1 244 186 185 486
728 4 2 1 1 323 319 395 510
729 4 2 1 1 128 457 493 510
730 4 2 1 1 161 254 247 468
731 4 2 1 1 334 336 465 516
732 4 2 1 1 355 354 483 484
733 4 2 1 1 101 206 499 521
734 4 2 1 1 370 329 192 488
735 4 2 1 1 230 425 466 515
736 4 2 1 1 227 499 463 502
737 4 2 1 1 254 247 468 519
738 4 2 1 1 223 398 197 486
739 4 2 1 1 169 470 372 504
740 4 2 1 1 84 462 494 515
741 4 2 1 1 374 203 238 449
742 4 2 1 1 304 396 305 480
743 4 2 1 1 227 92 502 505
744 4 2 1 1 270 160 153 512
745 4 2 1 1 23 59 24 484
746 4 2 1 1 301 140 136 480
747 4 2 1 1 15 497 68 502
748 4 2 1 1 376 382 184 470
749 4 2 1 1 374 203 509 521
750 4 2 1 1 13 492 412 505
751 4 2 1 1 169 373 372 470
752 4 2 1 1 425 410 89 466
753 4 2 1 1 381 327 330 488
754 4 2 1 1 137 136 135 472
755 4 2 1 1 115 116 117 488
756 4 2 1 1 214 325 309 479
757 4 2 1 1 419 463 212 499
758 4 2 1 1 83 494 462 515
759 4 2 1 1 179 201 495 517
760 4 2 1 1 421 410 45 515
761 4 2 1 1 84 494 43 515
762 4 2 1 1 203 202 173 509
763 4 2 1 1 87 428 415 491
764 4 2 1 1 141 182 142 471
765 4 2 1 1 121 123 316 485
766 4 2 1 1 30 465 323 511
767 4 2 1 1 208 374 238 518
768 4 2 1 1 465 510 395 511
769 4 2 1 1 419 463 431 520
770 4 2 1 1 118 116 366 483
771 4 2 1 1 266 256 264 473
772 4 2 1 1 283 409 71 501
773 4 2 1 1 408 349 407 483
774 4 2 1 1 410 466 425 515
775 4 2 1 1 429 222 217 466
776 4 2 1 1 438 434 437 466
777 4 2 1 1 347 345 346 467
778 4 2 1 1 105 106 104 522
779 4 2 1 1 339 69 26 514
780 4 2 1 1 464 500 383 522
781 4 2 1 1 25 338 339 514
782 4 2 1 1 98 464 99 521
783 4 2 1 1 34 325 33 479
784 4 2 1 1 66 218 222 491
785 4 2 1 1 326 327 59 484
786 4 2 1 1 401 399 166 523
787 4 2 1 1 36 35 77 469
788 4 2 1 1 100 96 98 521
789 4 2 1 1 77 35 298 508
790 4 2 1 1 273 75 39 507
791 4 2 1 1 347 467 346 506
792 4 2 1 1 104 464 280 522
793 4 2 1 1 86 413 438 466
794 4 2 1 1 25 467 338 514
795 4 2 1 1 236 449 238 509
796 4 2 1 1 409 283 211 501
797 4 2 1 1 56 333 31 516
798 4 2 1 1 132 133 134 489
799 4 2 1 1 165 127 360 475
800 4 2 1 1 205 101 206 499
801 4 2 1 1 147 145 181 477
802 4 2 1 1 83 43 494 515
803 4 2 1 1 281 193 386 513
804 4 2 1 1 276 155 160 517
805 4 2 1 1 391 494 224 495
806 4 2 1 1 303 304 305 480
807 4 2 1 1 30 70 29 465
808 4 2 1 1 201 391 199 495
809 4 2 1 1 156 155 157 468
810 4 2 1 1 34 479 78 508
811 4 2 1 1 219 518 220 520
812 4 2 1 1 155 468 160 517
813 4 2 1 1 236 238 449 518
814 4 2 1 1 97 95 383 497
815 4 2 1 1 345 82 344 467
816 4 2 1 1 352 24 25 467
817 4 2 1 1 31 72 396 511
818 4 2 1 1 30 323 72 511
819 4 2 1 1 395 323 465 511
820 4 2 1 1 82 25 26 467
821 4 2 1 1 387 241 194 503
822 4 2 1 1 168 281 158 486
823 4 2 1 1 382 385 404 482
824 4 2 1 1 187 110 184 490
825 4 2 1 1 380 336 379 493
826 4 2 1 1 352 345 348 467
827 4 2 1 1 30 29 323 465
828 4 2 1 1 300 164 378 489
829 4 2 1 1 154 161 247 468
830 4 2 1 1 179 157 276 517
831 4 2 1 1 20 283 21 487
832 4 2 1 1 248 249 476 507
833 4 2 1 1 349 348 347 506
834 4 2 1 1 241 243 503 509
835 4 2 1 1 326 327 484 488
836 4 2 1 1 281 161 156 468
837 4 2 1 1 128 127 129 493
838 4 2 1 1 355 356 354 484
839 4 2 1 1 109 111 112 490
840 4 2 1 1 283 71 21 487
841 4 2 1 1 379 378 489 516
842 4 2 1 1 153 155 154 468
843 4 2 1 1 361 213 388 496
844 4 2 1 1 372 373 188 504
845 4 2 1 1 268 383 497 500
846 4 2 1 1 222 420 66 466
847 4 2 1 1 187 216 377 490
848 4 2 1 1 386 254 161 468
849 4 2 1 1 254 248 247 519
850 4 2 1 1 311 317 318 474
851 4 2 1 1 257 256 258 469
852 4 2 1 1 18 74 19 482
853 4 2 1 1 364 297 365 477
854 4 2 1 1 386 468 513 519
855 4 2 1 1 178 151 149 476
856 4 2 1 1 231 63 398 494
857 4 2 1 1 233 502 88 518
858 4 2 1 1 401 166 362 485
859 4 2 1 1 372 470 373 504
860 4 2 1 1 386 254 468 519
861 4 2 1 1 230 410 425 515
862 4 2 1 1 289 288 471 508
863 4 2 1 1 280 464 99 522
864 4 2 1 1 177 321 510 511
865 4 2 1 1 188 112 174 501
866 4 2 1 1 280 99 464 521
867 4 2 1 1 375 387 194 503
868 4 2 1 1 256 255 264 473
869 4 2 1 1 223 231 398 494
870 4 2 1 1 384 269 60 500
871 4 2 1 1 36 277 35 469
872 4 2 1 1 207 205 206 499
873 4 2 1 1 291 306 302 480
874 4 2 1 1 399 393 475 523
875 4 2 1 1 130 132 177 489
876 4 2 1 1 112 490 113 501
877 4 2 1 1 167 486 158 495
878 4 2 1 1 116 115 114 483
879 4 2 1 1 178 266 265 473
880 4 2 1 1 104 280 99 522
881 4 2 1 1 166 399 475 523
882 4 2 1 1 332 381 330 498
883 4 2 1 1 492 505 445 520
884 4 2 1 1 280 98 99 521
885 4 2 1 1 248 250 249 507
886 4 2 1 1 68 94 93 502
887 4 2 1 1 56 496 388 516
888 4 2 1 1 468 512 160 517
889 4 2 1 1 197 210 193 486
890 4 2 1 1 374 202 203 521
891 4 2 1 1 241 242 64 500
892 4 2 1 1 383 500 384 522
893 4 2 1 1 215 404 403 487
894 4 2 1 1 64 17 497 500
895 4 2 1 1 295 77 296 469
896 4 2 1 1 99 464 97 522
897 4 2 1 1 66 415 221 491
898 4 2 1 1 280 464 267 521
899 4 2 1 1 419 431 65 520
900 4 2 1 1 361 214 204 496
901 4 2 1 1 23 24 353 484
902 4 2 1 1 328 71 409 501
903 4 2 1 1 195 309 196 479
904 4 2 1 1 81 343 474 523
905 4 2 1 1 341 342 81 523
906 4 2 1 1 227 94 499 502
907 4 2 1 1 21 71 22 487
908 4 2 1 1 438 436 86 466
909 4 2 1 1 88 232 15 502
910 4 2 1 1 225 429 217 466
911 4 2 1 1 334 465 70 516
912 4 2 1 1 417 85 430 505
913 4 2 1 1 431 207 219 520
914 4 2 1 1 359 379 489 493
915 4 2 1 1 198 223 197 486
916 4 2 1 1 298 34 78 508
917 4 2 1 1 167 158 159 495
918 4 2 1 1 326 328 327 488
919 4 2 1 1 225 230 425 466
920 4 2 1 1 60 18 19 482
921 4 2 1 1 170 106 169 503
922 4 2 1 1 396 480 307 496
923 4 2 1 1 383 102 97 522
924 4 2 1 1 267 106 170 503
925 4 2 1 1 420 429 86 466
926 4 2 1 1 75 271 481 519
927 4 2 1 1 159 157 179 495
928 4 2 1 1 202 279 267 521
929 4 2 1 1 248 251 250 507
930 4 2 1 1 117 331 175 488
931 4 2 1 1 123 126 390 475
932 4 2 1 1 442 447 423 505
933 4 2 1 1 420 86 436 466
934 4 2 1 1 289 290 288 508
935 4 2 1 1 391 224 199 495
936 4 2 1 1 15 232 16 497
937 4 2 1 1 497 500 464 509
938 4 2 1 1 408 407 366 483
939 4 2 1 1 14 502 92 505
940 4 2 1 1 83 231 223 494
941 4 2 1 1 172 372 375 504
942 4 2 1 1 100 101 499 521
943 4 2 1 1 118 144 120 506
944 4 2 1 1 92 227 430 505
945 4 2 1 1 399 369 393 523
946 4 2 1 1 63 481 271 513
947 4 2 1 1 94 96 228 499
948 4 2 1 1 144 118 366 506
949 4 2 1 1 194 241 243 503
950 4 2 1 1 165 129 127 493
951 4 2 1 1 234 88 412 502
952 4 2 1 1 13 442 423 505
953 4 2 1 1 271 513 481 519
954 4 2 1 1 319 318 320 510
955 4 2 1 1 282 482 74 504
956 4 2 1 1 489 493 465 510
957 4 2 1 1 232 64 497 509
958 4 2 1 1 420 222 429 466
959 4 2 1 1 436 437 433 466
960 4 2 1 1 131 489 130 493
961 4 2 1 1 391 260 62 517
962 4 2 1 1 128 493 130 510
963 4 2 1 1 234 492 432 518
964 4 2 1 1 379 389 378 516
965 4 2 1 1 173 503 243 509
966 4 2 1 1 262 481 259 512
967 4 2 1 1 463 505 492 520
968 4 2 1 1 402 401 362 485
969 4 2 1 1 215 403 216 487
970 4 2 1 1 391 62 229 494
971 4 2 1 1 66 221 218 491
972 4 2 1 1 379 336 389 516
973 4 2 1 1 447 492 423 505
974 4 2 1 1 76 273 38 507
975 4 2 1 1 395 510 321 511
976 4 2 1 1 74 18 242 500
977 4 2 1 1 94 68 95 497
978 4 2 1 1 440 435 87 478
979 4 2 1 1 202 267 170 503
980 4 2 1 1 237 432 492 518
981 4 2 1 1 351 400 177 511
982 4 2 1 1 271 272 513 519
983 4 2 1 1 219 208 220 518
984 4 2 1 1 288 290 291 508
985 4 2 1 1 379 378 164 489
986 4 2 1 1 75 272 271 519
987 4 2 1 1 205 207 419 499
988 4 2 1 1 427 219 220 520
989 4 2 1 1 250 252 249 507
990 4 2 1 1 396 307 32 496
991 4 2 1 1 31 396 32 496
992 4 2 1 1 232 233 240 509
993 4 2 1 1 300 133 164 489
994 4 2 1 1 355 349 408 483
995 4 2 1 1 179 201 199 495
996 4 2 1 1 169 107 373 470
997 4 2 1 1 108 376 184 470
998 4 2 1 1 121 122 123 485
999 4 2 1 1 33 32 307 496
1000 4 2 1 1 399 393 360 475
1001 4 2 1 1 446 444 445 505
1002 4 2 1 1 112 113 174 501
1003 4 2 1 1 16 232 64 497
1004 4 2 1 1 27 81 343 474
1005 4 2 1 1 262 259 261 512
1006 4 2 1 1 112 111 113 490
1007 4 2 1 1 383 269 384 500
1008 4 2 1 1 251 253 507 519
1009 4 2 1 1 299 137 135 472
1010 4 2 1 1 322 176 128 510
1011 4 2 1 1 141 142 139 471
1012 4 2 1 1 81 342 343 523
1013 4 2 1 1 110 111 109 490
1014 4 2 1 1 259 260 261 517
1015 4 2 1 1 168 193 281 486
1016 4 2 1 1 387 226 74 504
1017 4 2 1 1 301 302 140 480
1018 4 2 1 1 102 383 384 522
1019 4 2 1 1 199 224 200 495
1020 4 2 1 1 147 146 145 477
1021 4 2 1 1 63 271 275 513
1022 4 2 1 1 287 289 288 471
1023 4 2 1 1 163 248 249 476
1024 4 2 1 1 23 326 59 484
1025 4 2 1 1 177 400 321 511
1026 4 2 1 1 151 150 149 476
1027 4 2 1 1 225 413 86 466
1028 4 2 1 1 448 67 443 492
1029 4 2 1 1 391 229 224 494
1030 4 2 1 1 303 400 351 511
1031 4 2 1 1 435 394 87 478
1032 4 2 1 1 448 67 492 520
1033 4 2 1 1 228 227 94 499
1034 4 2 1 1 204 209 213 472
1035 4 2 1 1 275 398 63 513
1036 4 2 1 1 289 292 290 508
1037 4 2 1 1 423 492 13 505
1038 4 2 1 1 474 475 457 523
1039 4 2 1 1 216 403 356 487
1040 4 2 1 1 311 318 310 474
1041 4 2 1 1 167 168 158 486
1042 4 2 1 1 245 426 246 491
1043 4 2 1 1 257 73 256 469
1044 4 2 1 1 331 332 330 498
1045 4 2 1 1 166 122 362 485
1046 4 2 1 1 381 332 315 498
1047 4 2 1 1 116 114 171 483
1048 4 2 1 1 273 253 75 507
1049 4 2 1 1 334 70 333 516
1050 4 2 1 1 234 412 432 492
1051 4 2 1 1 385 358 404 482
1052 4 2 1 1 213 378 389 516
1053 4 2 1 1 224 229 84 494
1054 4 2 1 1 80 354 356 484
1055 4 2 1 1 13 14 92 505
1056 4 2 1 1 20 21 79 487
1057 4 2 1 1 438 437 436 466
1058 4 2 1 1 234 88 502 518
1059 4 2 1 1 18 60 269 500
1060 4 2 1 1 227 93 94 502
1061 4 2 1 1 203 236 238 509
1062 4 2 1 1 347 346 402 506
1063 4 2 1 1 225 425 413 466
1064 4 2 1 1 295 36 77 469
1065 4 2 1 1 16 64 17 497
1066 4 2 1 1 68 93 15 502
1067 4 2 1 1 426 478 411 515
1068 4 2 1 1 245 246 198 491
1069 4 2 1 1 265 266 264 473
1070 4 2 1 1 234 233 88 518
1071 4 2 1 1 187 377 367 490
1072 4 2 1 1 380 379 359 493
1073 4 2 1 1 79 403 404 487
1074 4 2 1 1 67 418 443 492
1075 4 2 1 1 129 130 128 493
1076 4 2 1 1 275 271 272 513
1077 4 2 1 1 437 435 440 478
1078 4 2 1 1 239 167 159 495
1079 4 2 1 1 162 364 365 477
1080 4 2 1 1 316 314 125 514
1081 4 2 1 1 270 368 160 512
1082 4 2 1 1 268 497 17 500
1083 4 2 1 1 77 298 293 508
1084 4 2 1 1 230 84 410 515
1085 4 2 1 1 205 100 101 499
1086 4 2 1 1 395 319 321 510
1087 4 2 1 1 445 448 443 492
1088 4 2 1 1 44 84 43 515
1089 4 2 1 1 39 61 38 473
1090 4 2 1 1 164 359 379 489
1091 4 2 1 1 441 444 65 520
1092 4 2 1 1 95 268 383 497
1093 4 2 1 1 481 512 454 519
1094 4 2 1 1 388 333 56 516
1095 4 2 1 1 409 211 190 501
1096 4 2 1 1 339 312 69 514
1097 4 2 1 1 188 174 190 501
1098 4 2 1 1 282 74 226 504
1099 4 2 1 1 225 86 429 466
1100 4 2 1 1 331 330 175 488
1101 4 2 1 1 374 279 202 521
1102 4 2 1 1 269 383 268 500
1103 4 2 1 1 115 117 175 488
1104 4 2 1 1 196 309 278 479
1105 4 2 1 1 227 92 93 502
1106 4 2 1 1 130 131 132 489
1107 4 2 1 1 237 234 432 518
1108 4 2 1 1 128 130 322 510
1109 4 2 1 1 442 445 447 505
1110 4 2 1 1 56 361 388 496
1111 4 2 1 1 114 113 111 490
1112 4 2 1 1 377 355 408 483
1113 4 2 1 1 386 513 274 519
1114 4 2 1 1 468 512 481 519
1115 4 2 1 1 272 75 253 519
1116 4 2 1 1 262 40 259 481
1117 4 2 1 1 423 412 13 492
1118 4 2 1 1 437 434 439 478
1119 4 2 1 1 231 42 63 494
1120 4 2 1 1 227 228 417 499
1121 4 2 1 1 63 41 271 481
1122 4 2 1 1 105 104 103 522
1123 4 2 1 1 407 349 347 506
1124 4 2 1 1 172 375 194 503
1125 4 2 1 1 101 100 98 521
1126 4 2 1 1 123 124 126 475
1127 4 2 1 1 338 315 339 514
1128 4 2 1 1 341 369 342 523
1129 4 2 1 1 203 173 243 509
1130 4 2 1 1 386 274 254 519
1131 4 2 1 1 468 454 512 519
1132 4 2 1 1 441 445 444 520
1133 4 2 1 1 14 412 88 502
1134 4 2 1 1 99 97 102 522
1135 4 2 1 1 15 16 68 497
1136 4 2 1 1 75 271 40 481
1137 4 2 1 1 360 166 399 475
1138 4 2 1 1 401 350 399 523
1139 4 2 1 1 37 36 295 469
1140 4 2 1 1 448 492 445 520
1141 4 2 1 1 21 22 357 487
1142 4 2 1 1 384 189 102 522
1143 4 2 1 1 211 282 226 504
1144 4 2 1 1 261 263 262 512
1145 4 2 1 1 193 210 386 513
1146 4 2 1 1 282 19 74 482
1147 4 2 1 1 186 198 197 486
1148 4 2 1 1 279 280 267 521
1149 4 2 1 1 156 154 155 468
1150 4 2 1 1 62 259 41 481
1151 4 2 1 1 25 82 352 467
1152 4 2 1 1 82 345 352 467
1153 4 2 1 1 328 409 192 501
1154 4 2 1 1 426 411 246 515
1155 4 2 1 1 191 372 188 504
1156 4 2 1 1 160 512 392 517
1157 4 2 1 1 156 161 154 468
1158 4 2 1 1 395 72 323 511
1159 4 2 1 1 264 263 265 473
1160 4 2 1 1 313 314 316 514
1161 4 2 1 1 276 160 392 517
1162 4 2 1 1 445 492 447 505
1163 4 2 1 1 415 428 221 491
1164 4 2 1 1 343 342 344 523
1165 4 2 1 1 22 326 23 484
1166 4 2 1 1 44 43 83 515
1167 4 2 1 1 170 169 172 503
1168 4 2 1 1 359 489 131 493
1169 4 2 1 1 465 489 455 516
1170 4 2 1 1 305 396 72 511
1171 4 2 1 1 411 478 45 515
1172 4 2 1 1 201 179 276 517
1173 4 2 1 1 455 489 465 511
1174 4 2 1 1 314 498 125 514
1175 4 2 1 1 144 485 120 506
1176 4 2 1 1 396 304 307 480
1177 4 2 1 1 174 113 370 501
1178 4 2 1 1 361 324 214 496
1179 4 2 1 1 465 493 457 510
1180 4 2 1 1 83 43 231 494
1181 4 2 1 1 87 245 428 491
1182 4 2 1 1 108 105 376 470
1183 4 2 1 1 455 511 465 516
1184 4 2 1 1 209 204 183 472
1185 4 2 1 1 373 107 109 470
1186 4 2 1 1 27 28 81 474
1187 4 2 1 1 464 503 500 522
1188 4 2 1 1 500 503 450 522
1189 4 2 1 1 35 57 34 479
1190 4 2 1 1 138 287 288 471
1191 4 2 1 1 135 300 299 472
1192 4 2 1 1 147 148 146 477
1193 4 2 1 1 143 139 142 471
1194 4 2 1 1 254 251 248 519
1195 4 2 1 1 370 115 175 488
1196 4 2 1 1 144 366 407 506
1197 4 2 1 1 100 228 96 499
1198 4 2 1 1 131 130 129 493
1199 4 2 1 1 167 185 168 486
1200 4 2 1 1 452 479 471 508
1201 4 2 1 1 236 233 235 518
1202 4 2 1 1 302 303 140 480
1203 4 2 1 1 151 152 150 476
1204 4 2 1 1 402 485 362 506
1205 4 2 1 1 45 411 422 478
1206 4 2 1 1 362 485 144 506
1207 4 2 1 1 130 177 322 510
1208 4 2 1 1 232 240 64 509
1209 4 2 1 1 64 242 17 500
1210 4 2 1 1 468 481 458 513
1211 4 2 1 1 310 69 311 474
1212 4 2 1 1 42 229 62 494
1213 4 2 1 1 449 509 497 521
1214 4 2 1 1 497 509 464 521
1215 4 2 1 1 249 363 163 476
1216 4 2 1 1 458 481 468 517
1217 4 2 1 1 394 435 90 478
1218 4 2 1 1 322 320 176 510
1219 4 2 1 1 405 441 65 520
1220 4 2 1 1 438 86 5 413
1221 4 2 1 1 180 199 200 495
1222 4 2 1 1 357 356 403 487
1223 4 2 1 1 294 162 365 477
1224 4 2 1 1 206 279 374 521
1225 4 2 1 1 452 480 472 496
1226 4 2 1 1 237 418 67 492
1227 4 2 1 1 251 253 250 507
1228 4 2 1 1 473 476 459 507
1229 4 2 1 1 387 375 226 504
1230 4 2 1 1 332 315 498 514
1231 4 2 1 1 329 327 328 488
1232 4 2 1 1 264 61 263 473
1233 4 2 1 1 442 2 13 423
1234 4 2 1 1 334 389 336 516
1235 4 2 1 1 236 240 233 509
1236 4 2 1 1 239 159 180 495
1237 4 2 1 1 298 78 308 508
1238 4 2 1 1 442 13 424 505
1239 4 2 1 1 31 32 56 496
1240 4 2 1 1 194 243 173 503
1241 4 2 1 1 1 45 422 434
1242 4 2 1 1 470 482 451 504
1243 4 2 1 1 33 324 32 496
1244 4 2 1 1 16 17 268 497
1245 4 2 1 1 173 202 170 503
1246 4 2 1 1 37 73 36 469
1247 4 2 1 1 402 362 144 506
1248 4 2 1 1 19 282 20 482
1249 4 2 1 1 362 120 144 485
1250 4 2 1 1 221 185 218 491
1251 4 2 1 1 119 121 125 498
1252 4 2 1 1 377 408 171 483
1253 4 2 1 1 76 371 273 507
1254 4 2 1 1 443 418 91 492
1255 4 2 1 1 360 124 166 475
1256 4 2 1 1 290 308 291 508
1257 4 2 1 1 114 111 367 490
1258 4 2 1 1 84 229 43 494
1259 4 2 1 1 250 371 252 507
1260 4 2 1 1 422 439 1 434
1261 4 2 1 1 164 131 359 489
1262 4 2 1 1 332 498 314 514
1263 4 2 1 1 453 485 467 514
1264 4 2 1 1 463 502 499 518
1265 4 2 1 1 309 57 278 479
1266 4 2 1 1 108 107 105 470
1267 4 2 1 1 423 442 2 447
1268 4 2 1 1 107 108 109 470
1269 4 2 1 1 299 209 183 472
1270 4 2 1 1 385 60 358 482
1271 4 2 1 1 257 277 73 469
1272 4 2 1 1 138 139 287 471
1273 4 2 1 1 391 201 260 517
1274 4 2 1 1 152 163 150 476
1275 4 2 1 1 27 310 28 474
1276 4 2 1 1 310 27 69 474
1277 4 2 1 1 209 299 300 472
1278 4 2 1 1 143 287 139 471
1279 4 2 1 1 61 255 38 473
1280 4 2 1 1 124 127 126 475
1281 4 2 1 1 499 502 449 518
1282 4 2 1 1 163 363 150 476
1283 4 2 1 1 64 240 241 509
1284 4 2 1 1 392 512 261 517
1285 4 2 1 1 148 162 146 477
1286 4 2 1 1 439 90 435 478
1287 4 2 1 1 294 146 162 477
1288 4 2 1 1 400 395 321 511
1289 4 2 1 1 436 86 5 438
1290 4 2 1 1 467 456 498 506
1291 4 2 1 1 245 198 244 491
1292 4 2 1 1 275 210 398 513
1293 4 2 1 1 462 466 491 515
1294 4 2 1 1 303 305 400 511
1295 4 2 1 1 22 23 80 484
1296 4 2 1 1 14 93 92 502
1297 4 2 1 1 487 490 451 501
1298 4 2 1 1 461 490 487 501
1299 4 2 1 1 332 314 315 514
1300 4 2 1 1 462 494 486 495
1301 4 2 1 1 185 186 168 486
1302 4 2 1 1 269 268 17 500
1303 4 2 1 1 406 444 48 85
1304 4 2 1 1 486 494 458 495
1305 4 2 1 1 274 513 272 519
1306 4 2 1 1 213 389 388 516
1307 4 2 1 1 236 235 238 518
1308 4 2 1 1 80 353 354 484
1309 4 2 1 1 392 261 260 517
1310 4 2 1 1 85 444 48 446
1311 4 2 1 1 292 293 290 508
1312 4 2 1 1 208 238 220 518
1313 4 2 1 1 66 433 8 415
1314 4 2 1 1 394 435 11 90
1315 4 2 1 1 411 83 246 515
1316 4 2 1 1 359 131 129 493
1317 4 2 1 1 19 20 358 482
1318 4 2 1 1 313 312 314 514
1319 4 2 1 1 124 360 127 475
1320 4 2 1 1 264 255 61 473
1321 4 2 1 1 205 419 212 499
1322 4 2 1 1 306 307 304 480
1323 4 2 1 1 302 304 303 480
1324 4 2 1 1 36 73 277 469
1325 4 2 1 1 54 443 418 91
1326 4 2 1 1 67 448 416 520
1327 4 2 1 1 443 91 447 492
1328 4 2 1 1 275 272 274 513
1329 4 2 1 1 366 116 171 483
1330 4 2 1 1 103 102 189 522
1331 4 2 1 1 485 498 467 514
1332 4 2 1 1 467 498 485 506
1333 4 2 1 1 211 226 191 504
1334 4 2 1 1 415 433 8 440
1335 4 2 1 1 442 424 414 505
1336 4 2 1 1 380 359 165 493
1337 4 2 1 1 370 175 329 488
1338 4 2 1 1 212 417 228 499
1339 4 2 1 1 325 34 57 479
1340 4 2 1 1 472 480 455 496
1341 4 2 1 1 461 484 483 488
1342 4 2 1 1 45 410 44 515
1343 4 2 1 1 261 368 263 512
1344 4 2 1 1 442 13 2 424
1345 4 2 1 1 177 321 322 510
1346 4 2 1 1 414 85 446 505
1347 4 2 1 1 416 441 51 520
1348 4 2 1 1 350 344 342 523
1349 4 2 1 1 44 410 84 515
1350 4 2 1 1 206 101 279 521
1351 4 2 1 1 456 483 484 488
1352 4 2 1 1 435 10 87 394
1353 4 2 1 1 421 45 1 434
1354 4 2 1 1 439 422 90 478
1355 4 2 1 1 325 57 309 479
1356 4 2 1 1 332 125 314 498
1357 4 2 1 1 471 479 460 508
1358 4 2 1 1 454 476 473 507
1359 4 2 1 1 453 475 474 523
1360 4 2 1 1 221 244 185 491
1361 4 2 1 1 19 358 60 482
1362 4 2 1 1 450 482 470 504
1363 4 2 1 1 80 23 353 484
1364 4 2 1 1 448 441 416 520
1365 4 2 1 1 133 132 131 489
1366 4 2 1 1 435 437 439 478
1367 4 2 1 1 367 110 187 490
1368 4 2 1 1 272 253 251 519
1369 4 2 1 1 405 51 441 520
1370 4 2 1 1 441 50 405 65
1371 4 2 1 1 174 370 192 501
1372 4 2 1 1 414 446 442 505
1373 4 2 1 1 302 306 304 480
1374 4 2 1 1 433 7 420 66
1375 4 2 1 1 366 171 408 483
1376 4 2 1 1 186 197 193 486
1377 4 2 1 1 478 491 466 515
1378 4 2 1 1 443 447 445 492
1379 4 2 1 1 481 513 468 519
1380 4 2 1 1 447 91 423 492
1381 4 2 1 1 331 119 125 498
1382 4 2 1 1 329 330 327 488
1383 4 2 1 1 405 65 431 520
1384 4 2 1 1 235 233 234 518
1385 4 2 1 1 441 448 445 520
1386 4 2 1 1 405 416 51 520
1387 4 2 1 1 423 91 412 492
1388 4 2 1 1 414 430 85 505
1389 4 2 1 1 129 165 359 493
1390 4 2 1 1 411 45 44 515
1391 4 2 1 1 180 159 179 495
1392 4 2 1 1 448 51 416 441
1393 4 2 1 1 435 439 11 90
1394 4 2 1 1 234 237 235 518
1395 4 2 1 1 164 133 131 489
1396 4 2 1 1 446 445 442 505
1397 4 2 1 1 199 180 179 495
1398 4 2 1 1 434 3 421 89
1399 4 2 1 1 17 242 18 500
1400 4 2 1 1 367 111 110 490
1401 4 2 1 1 67 416 427 520
1402 4 2 1 1 50 441 444 65
1403 4 2 1 1 320 321 319 510
1404 4 2 1 1 411 90 422 478
1405 4 2 1 1 41 259 40 481
1406 4 2 1 1 41 40 271 481
1407 4 2 1 1 186 193 168 486
1408 4 2 1 1 443 67 53 418
1409 4 2 1 1 46 414 442 424
1410 4 2 1 1 268 95 68 497
1411 4 2 1 1 443 54 447 91
1412 4 2 1 1 243 236 203 509
1413 4 2 1 1 243 241 240 509
1414 4 2 1 1 122 121 120 485
1415 4 2 1 1 122 120 362 485
1416 4 2 1 1 481 512 468 517
1417 4 2 1 1 440 10 87 435
1418 4 2 1 1 104 99 103 522
1419 4 2 1 1 357 79 21 487
1420 4 2 1 1 98 280 101 521
1421 4 2 1 1 14 88 15 502
1422 4 2 1 1 412 91 432 492
1423 4 2 1 1 191 375 372 504
1424 4 2 1 1 90 411 426 478
1425 4 2 1 1 357 403 79 487
1426 4 2 1 1 350 369 399 523
1427 4 2 1 1 432 418 237 492
1428 4 2 1 1 231 43 42 494
1429 4 2 1 1 3 434 438 89
1430 4 2 1 1 368 392 160 512
1431 4 2 1 1 329 175 330 488
1432 4 2 1 1 361 56 324 496
1433 4 2 1 1 268 68 16 497
1434 4 2 1 1 220 235 237 518
1435 4 2 1 1 192 409 190 501
1436 4 2 1 1 332 331 125 498
1437 4 2 1 1 433 420 7 436
1438 4 2 1 1 14 15 93 502
1439 4 2 1 1 46 414 446 442
1440 4 2 1 1 269 17 18 500
1441 4 2 1 1 43 229 42 494
1442 4 2 1 1 334 333 388 516
1443 4 2 1 1 205 212 100 499
1444 4 2 1 1 394 90 426 478
1445 4 2 1 1 407 347 402 506
1446 4 2 1 1 406 49 444 65
1447 4 2 1 1 386 210 274 513
1448 4 2 1 1 411 44 83 515
1449 4 2 1 1 92 424 13 505
1450 4 2 1 1 413 4 438 89
1451 4 2 1 1 173 172 194 503
1452 4 2 1 1 428 245 244 491
1453 4 2 1 1 430 414 92 505
1454 4 2 1 1 212 228 100 499
1455 4 2 1 1 173 170 172 503
1456 4 2 1 1 339 315 312 514
1457 4 2 1 1 395 305 72 511
1458 4 2 1 1 32 324 56 496
1459 4 2 1 1 99 102 103 522
1460 4 2 1 1 87 415 9 440
1461 4 2 1 1 308 293 298 508
1462 4 2 1 1 279 101 280 521
1463 4 2 1 1 253 371 250 507
1464 4 2 1 1 407 402 144 506
1465 4 2 1 1 432 91 418 492
1466 4 2 1 1 192 190 174 501
1467 4 2 1 1 238 235 220 518
1468 4 2 1 1 350 342 369 523
1469 4 2 1 1 274 251 254 519
1470 4 2 1 1 253 273 371 507
1471 4 2 1 1 368 261 392 512
1472 4 2 1 1 334 388 389 516
1473 4 2 1 1 448 67 53 443
1474 4 2 1 1 320 322 321 510
1475 4 2 1 1 201 276 392 517
1476 4 2 1 1 191 226 375 504
1477 4 2 1 1 210 275 274 513
1478 4 2 1 1 219 405 431 520
1479 4 2 1 1 201 392 260 517
1480 4 2 1 1 85 47 414 446
1481 4 2 1 1 395 400 305 511
1482 4 2 1 1 308 290 293 508
1483 4 2 1 1 274 272 251 519
1484 4 2 1 1 86 6 420 436
1485 4 2 1 1 240 236 243 509
1486 4 2 1 1 52 416 67 448
1487 4 2 1 1 8 7 433 66
1488 4 2 1 1 444 48 49 406
1489 4 2 1 1 415 8 9 440
1490 4 2 1 1 414 424 92 505
1491 4 2 1 1 314 312 315 514
1492 4 2 1 1 405 219 416 520
1493 4 2 1 1 428 244 221 491
1494 4 2 1 1 5 4 438 413
1495 4 2 1 1 11 10 435 394
1496 4 2 1 1 439 1 12 422
1497 4 2 1 1 423 2 55 447
1498 4 2 1 1 4 3 438 89
1499 4 2 1 1 444 49 50 65
1500 4 2 1 1 420 6 7 436
1501 4 2 1 1 12 11 439 90
1502 4 2 1 1 87 9 10 440
1503 4 2 1 1 414 47 46 446
1504 4 2 1 1 90 439 12 422
1505 4 2 1 1 416 52 51 448
1506 4 2 1 1 443 53 54 418
1507 4 2 1 1 447 54 55 91
1508 4 2 1 1 55 423 447 91
1509 4 2 1 1 51 50 405 441
1510 4 2 1 1 2 46 442 424
1511 4 2 1 1 421 1 3 434
1512 4 2 1 1 85 48 47 446
1513 4 2 1 1 5 6 86 436
1514 4 2 1 1 219 427 416 520
1515 4 2 1 1 67 53 52 448
1516 4 2 1 1 491 433 66 415
1517 4 2 1 1 491 66 433 466
1518 4 2 1 1 470 522 189 450
1519 4 2 1 1 189 522 470 376
1520 4 2 1 1 478 433 491 440
1521 4 2 1 1 478 491 433 466
1522 4 2 1 1 470 522 106 105
1523 4 2 1 1 106 522 470 450
1524 4 2 1 1 518 206 374 449
1525 4 2 1 1 518 374 206 208
1526 4 2 1 1 461 114 367 490
1527 4 2 1 1 483 367 114 171
1528 4 2 1 1 483 114 367 461
1529 4 2 1 1 504 190 188 191
1530 4 2 1 1 504 188 190 451
1531 4 2 1 1 486 513 398 210
1532 4 2 1 1 398 513 486 458
1533 4 2 1 1 512 265 270 368
1534 4 2 1 1 512 270 265 454
1535 4 2 1 1 462 239 491 466
1536 4 2 1 1 222 239 491 218
1537 4 2 1 1 222 491 239 466
1538 4 2 1 1 480 511 396 305
1539 4 2 1 1 396 511 480 455
1540 4 2 1 1 497 502 94 68
1541 4 2 1 1 94 502 497 449
1542 4 2 1 1 503 504 169 172
1543 4 2 1 1 169 504 503 450
1544 4 2 1 1 486 513 281 458
1545 4 2 1 1 281 513 486 193
1546 4 2 1 1 503 504 387 450
1547 4 2 1 1 387 504 503 375
1548 4 2 1 1 516 30 70 333
1549 4 2 1 1 516 70 30 465
1550 4 2 1 1 204 496 213 361
1551 4 2 1 1 213 496 204 472
1552 4 2 1 1 498 120 121 485
1553 4 2 1 1 498 121 120 119
1554 4 2 1 1 434 422 478 45
1555 4 2 1 1 434 478 422 439
1556 4 2 1 1 514 25 26 339
1557 4 2 1 1 514 26 25 467
1558 4 2 1 1 220 520 237 427
1559 4 2 1 1 237 520 220 518
1560 4 2 1 1 507 38 39 273
1561 4 2 1 1 507 39 38 473
1562 4 2 1 1 237 520 67 427
1563 4 2 1 1 67 520 237 492
1564 4 2 1 1 498 121 514 485
1565 4 2 1 1 498 514 121 125
1566 4 2 1 1 316 514 121 485
1567 4 2 1 1 316 121 514 125
1568 4 2 1 1 512 259 517 481
1569 4 2 1 1 512 517 259 261
1570 4 2 1 1 508 34 35 298
1571 4 2 1 1 508 35 34 479
1572 4 2 1 1 515 426 491 246
1573 4 2 1 1 515 491 426 478
1574 4 2 1 1 517 259 62 481
1575 4 2 1 1 517 62 259 260
1576 4 2 1 1 87 491 394 245
1577 4 2 1 1 87 394 491 478
1578 4 2 1 1 426 394 491 245
1579 4 2 1 1 426 491 394 478
1580 4 2 1 1 239 491 167 462
1581 4 2 1 1 239 167 491 218
1582 4 2 1 1 185 167 491 462
1583 4 2 1 1 185 491 167 218
$EndElements
