$MeshFormat
2.2 0 8
$EndMeshFormat
$PhysicalNames
1
3 1 "Cylinder"
$EndPhysicalNames
$Nodes
194
1 0.5 -1.224646799147353e-16 1
2 0.5 -1.224646799147353e-16 0
3 0.4619397662556436 0.1913417161825444 1
4 0.3535533905932744 0.3535533905932731 1
5 0.1913417161825461 0.4619397662556429 1
6 1.695950706916419e-15 0.5 1
7 -0.1913417161825426 0.4619397662556443 1
8 -0.3535533905932717 0.3535533905932758 1
9 -0.4619397662556421 0.1913417161825478 1
10 -0.5 3.613946018757869e-15 1
11 -0.4619397662556449 -0.1913417161825411 1
12 -0.353553390593276 -0.3535533905932715 1
13 -0.1913417161825472 -0.4619397662556424 1
14 -2.312294559186364e-15 -0.5 1
15 0.1913417161825429 -0.4619397662556442 1
16 0.3535533905932731 -0.3535533905932745 1
17 0.4619397662556433 -0.1913417161825452 1
18 0.5 -1.224646799147353e-16 0.2
19 0.5 -1.224646799147353e-16 0.4
20 0.5 -1.224646799147353e-16 0.6
21 0.5 -1.224646799147353e-16 0.8
22 0.4619397662556436 0.1913417161825444 0
23 0.3535533905932744 0.3535533905932731 0
24 0.1913417161825461 0.4619397662556429 0
25 1.695950706916419e-15 0.5 0
26 -0.1913417161825426 0.4619397662556443 0
27 -0.3535533905932717 0.3535533905932758 0
28 -0.4619397662556421 0.1913417161825478 0
29 -0.5 3.613946018757869e-15 0
30 -0.4619397662556449 -0.1913417161825411 0
31 -0.353553390593276 -0.3535533905932715 0
32 -0.1913417161825472 -0.4619397662556424 0
33 -2.312294559186364e-15 -0.5 0
34 0.1913417161825429 -0.4619397662556442 0
35 0.3535533905932731 -0.3535533905932745 0
36 0.4619397662556433 -0.1913417161825452 0
37 -0.1087827332489555 0.4880228651885961 0.1674960178093326
38 -0.4158879335009878 0.2775558083850488 0.8370202009178251
39 -0.4908157162258027 -0.09539356742334544 0.8309466095962095
40 -0.1087827987880126 -0.4880228505796084 0.8325038989149842
41 0.4699999999999753 0.1705872210923879 0.5
42 0.4705915879162402 -0.1689483867412518 0.5027742476432286
43 0.09752733825073152 0.4903961850317837 0.826362274282984
44 -0.4907079691451822 0.09594628193635736 0.1616485164803443
45 -0.4167624763338532 -0.2762409063119987 0.1618138955485959
46 0.09752733824968769 -0.4903961850319912 0.1736377257189985
47 0.290045778201687 0.4072756395211697 0.1836375022494273
48 0.2900457782004939 -0.4072756395220195 0.8163624977541634
49 0.4057819123998396 0.292131887285741 0.8154531167944283
50 0.4057819123981879 -0.2921318872880353 0.1845468832077135
51 0.4723030399807839 -0.164103133501192 0.6969074939250989
52 0.3773193421635661 -0.3280702882451468 0.6346081199524505
53 0.3858163266800249 -0.3180342152459895 0.4044446064152012
54 0.254442354039417 -0.4304173422050742 0.5010644551702991
55 0.2631737528623916 -0.4251347736945601 0.304984494915127
56 0.09548780884298919 -0.4907973903377694 0.4029973293177163
57 -0.08676805255516724 -0.4924137539262929 0.2922567961500833
58 -0.08610993512428523 -0.4925292672246913 0.4818567891034248
59 -0.2443983112640103 -0.4361988829092756 0.3752057327015457
60 -0.2378029079728142 -0.4398292588717505 0.5455016727443172
61 -0.373534727699122 -0.3323729940935978 0.4640121227977446
62 -0.3687109844520459 -0.3377161677272842 0.6594134800192746
63 -0.4635937379096071 -0.1872988151884536 0.5354465356949136
64 0.09575665470985562 -0.4907450082056642 0.5989736275602962
65 -0.4622687259683033 -0.190545598195397 0.3387871159294583
66 -0.4998694155144005 -0.01142661075260765 0.4435680309381096
67 -0.4999646556751741 -0.005945004256060146 0.6485467711232958
68 -0.4759818235535452 0.1531055310778869 0.5167737146414579
69 0.4700000000000383 0.1705872210922143 0.3
70 0.3769302941201288 0.3285172040769147 0.3653700865384902
71 0.3842896508437148 0.3198772643599663 0.598168750959896
72 0.2544423540460517 0.4304173422011521 0.4989355448426844
73 0.2628673086730287 0.4253243209963412 0.6953865991699772
74 0.0954878088542295 0.4907973903355825 0.5970026707017427
75 -0.08676812606203527 0.4924137409736681 0.7077432157464338
76 -0.08610993510389461 0.4925292672282562 0.518143210898666
77 -0.2443984736356107 0.4361987919338884 0.624794094929005
78 -0.2378023009500794 0.4398295870707744 0.4544987044181727
79 0.09575665471381049 0.4907450082048926 0.401026372459116
80 -0.3761451914344539 0.3294158389645799 0.5433959650549871
81 -0.3741742745580402 0.3316528490137908 0.3550420848468628
82 -0.2624078846590798 0.4256079205897689 0.8152655413142716
83 -0.2625530305906585 -0.4255183969320959 0.1846104262194802
84 -0.2856450756611421 0.4103740863535859 0.1600666025073004
85 -0.4899576766141434 -0.0997069462317972 0.1541575877729271
86 -0.2843490490623848 -0.4112731674900728 0.8427133018145199
87 -0.4907681587094592 0.09563793388048028 0.8350699252878396
88 -0.4207198096321521 0.2701755758448304 0.1730111330329231
89 -0.4174898027279158 -0.2751404452606085 0.8378648667454401
90 0.09560721815066672 -0.4907741434076278 0.7893500183966822
91 0.09560722499252962 0.4907741420747713 0.2106499729141296
92 0.4738377613921484 -0.1596175926358916 0.3086050064102808
93 0.472006937895697 0.1649528738104543 0.6897864421764617
94 0.413393990853988 0.2812568369405674 0.1673872391649028
95 0.413685797834622 -0.2808274571154542 0.8324178238038045
96 -0.4781745636527165 0.1461132665966172 0.3264692915232814
97 -0.07029925090062029 -0.4950333476876196 0.6571221902194307
98 -0.0702992508911338 0.4950333476889667 0.3428778097802668
99 -0.4591331730676715 0.197981639019409 0.6816175631776342
100 0.2777851165097998 -0.4157348061512735 0.1372789863592841
101 0.277785116509802 0.415734806151272 0.8627210136492826
102 0.2354990655582291 -0.4410671038755904 0.6616755919180834
103 0.2354241829268022 0.4411070778090594 0.3383214972617418
104 -0.3542792316841238 -0.3528260562902163 0.2981521159287808
105 -0.3542795409224168 0.3528257457779996 0.7018479130425995
106 -0.4634579595047881 -0.1876345377899766 0.7015562620255219
107 -0.09754516100806651 -0.4903926402016148 0.1259944362776772
108 -0.09754516100806203 0.4903926402016157 0.8740055637227713
109 0.4782231937197028 -0.1459540235434694 0.8529236690991588
110 0.4782231937196585 0.1459540235436146 0.1470763309009207
111 0.4801218655104327 -0.1395814968352969 0.1436033100855972
112 0.4798463471185989 0.1405257384144879 0.8562353283897244
113 -0.5 3.169856808907806e-15 0.2823939251338741
114 -0.2231195851427973 0.4474568702408155 0.3017694488634522
115 -0.2216035475108808 -0.4482096247634502 0.7014853640019265
116 -0.0627097287946847 0.3152630961100268 1
117 0.05533867031720698 -0.3202664035739307 1
118 -0.2883534653220133 -0.08361808915135242 1
119 0.3340746794416691 0.06751015065979124 1
120 -0.2672671475943564 0.1785821986401757 1
121 0.1953085435795848 0.2912332548130402 1
122 0.2792747720342928 -0.1802747365457643 1
123 -0.197128399340678 -0.2710182334032047 1
124 0.2106520661450171 -0.3152630961100262 1
125 0.09276698844404234 -0.1376959357467603 1
126 0.2228927954666152 -0.01940171523854835 1
127 0.06304462576590251 0.06574397041179814 1
128 -0.1006345292030333 -0.01930358278090395 1
129 -0.1026050891857488 0.1567734579338612 1
130 -0.07185561660073174 -0.1750693506763057 1
131 -0.3252437553779031 -0.2248828573325924 1
132 0.371878177559365 -0.07397116867516623 1
133 -0.2106520661450165 0.3152630961100271 1
134 -0.08099741236135044 -0.3456587507818167 1
135 0.3099164658007819 0.2077968254985521 1
136 0.07397116867516729 0.3718781775593651 1
137 -0.3552317421972896 0.06843774366724968 1
138 0.04370920140124578 0.2197409943737627 1
139 -0.2228183947004883 0.06017434566180604 1
140 0.1948243852426332 0.1387705800863993 1
141 -0.08361808915135352 0.2883534653220136 0
142 0.06751015065978994 -0.3340746794416688 0
143 -0.3202664035739313 -0.05533867031720594 0
144 0.3152630961100262 0.06270972879468581 0
145 -0.2710182334032052 0.1971283993406784 0
146 0.1785821986401746 0.2672671475943572 0
147 0.2912332548130399 -0.1953085435795843 0
148 -0.1802747365457657 -0.2792747720342919 0
149 -0.3152630961100274 -0.2106520661450158 0
150 -0.1376959357467613 -0.09276698844404163 0
151 -0.01940171523854951 -0.2228927954666146 0
152 0.06574397041179723 -0.063044625765902 0
153 -0.01930358278090481 0.1006345292030338 0
154 0.1567734579338603 0.1026050891857495 0
155 -0.1750693506763065 0.07185561660073231 0
156 0.2077968254985513 -0.3099164658007819 0
157 -0.2248828573325933 0.3252437553779031 0
158 -0.07397116867516787 -0.3718781775593643 0
159 0.371878177559365 -0.07397116867516623 0
160 -0.3456587507818171 0.08099741236135125 0
161 0.3152630961100262 0.2106520661450177 0
162 0.06843774366724835 0.35523174219729 0
163 0.2197409943737619 -0.04370920140124494 0
164 0.06017434566180499 0.2228183947004888 0
165 0.1387705800863984 -0.1948243852426327 0
166 -1.036790635799978e-05 -2.049998634479078e-05 0.4917107362237108
167 -0.1693228725337992 0.1167011602353342 0.7102126533108273
168 0.1793297574932871 -0.1193064280079088 0.2855575767369418
169 0.1939074692742253 0.05703128637877941 0.7122358491989245
170 0.1376125889965517 0.2106140314556627 0.2667169950576987
171 -0.1067632360860425 -0.1926014409697616 0.2805299195364817
172 -0.1309049381938553 -0.171451369558367 0.6878851575882954
173 -0.1944198684959455 0.08593546560820091 0.2912182145644555
174 0.1323580458407187 -0.1929217116462265 0.6281212406101453
175 0.03980454608612168 0.2556097125821179 0.7486005517140387
176 0.2477272118847271 0.04644489141217872 0.4647456006608539
177 -0.2540447405118519 -0.02699381328925129 0.5152988725258595
178 -0.06533248836045144 0.2454502570961823 0.4473626989390053
179 -0.04341239085120023 -0.2639114723649015 0.4929288776029008
180 0.1836424605989519 0.2461200737306433 0.5324792981100213
181 -0.001257919907137001 -0.003057468220637558 0.2093818495417914
182 0.130121426671769 -0.2782569144061416 0.178937734678078
183 0.2818693098416835 -0.08904866778853489 0.8200680707513551
184 -0.004969293840825562 -0.0153971244821979 0.7942082950739777
185 -0.1014400487609246 0.2770997988061669 0.2319702051647851
186 0.3011573067740361 0.05076085830758029 0.2066801404470996
187 -0.3016514841350948 -0.05064139080294372 0.7385731973923076
188 0.2274116126115914 0.2148992026495939 0.823944713034797
189 -0.01863061283468722 -0.301814665685965 0.8058345038189143
190 -0.2821897510248591 -0.09177018921052105 0.208286788776277
191 -0.259818879619392 0.1750504660086339 0.4671567795367566
192 0.1551010511007532 -0.2615361596681617 0.434082850316319
193 0.3043910190671143 -0.08329929175749699 0.6124410540724667
194 -0.2454033374262516 -0.2022342808825642 0.8324563888919552
$EndNodes
$Elements
602
1 4 2 1 1 159 163 147 186
2 4 2 1 1 139 137 120 167
3 4 2 1 1 139 137 167 187
4 4 2 1 1 133 116 167 175
5 4 2 1 1 77 175 167 178
6 4 2 1 1 162 164 170 185
7 4 2 1 1 133 116 129 167
8 4 2 1 1 61 171 177 179
9 4 2 1 1 171 65 177 190
10 4 2 1 1 65 61 171 177
11 4 2 1 1 133 167 82 175
12 4 2 1 1 162 164 146 170
13 4 2 1 1 48 183 174 189
14 4 2 1 1 133 82 116 175
15 4 2 1 1 137 87 120 167
16 4 2 1 1 61 177 172 179
17 4 2 1 1 107 158 171 182
18 4 2 1 1 87 167 137 187
19 4 2 1 1 129 167 116 175
20 4 2 1 1 151 171 158 182
21 4 2 1 1 48 124 183 189
22 4 2 1 1 167 175 166 178
23 4 2 1 1 183 184 174 189
24 4 2 1 1 75 175 77 178
25 4 2 1 1 166 178 175 180
26 4 2 1 1 77 82 167 175
27 4 2 1 1 171 57 182 192
28 4 2 1 1 163 168 147 186
29 4 2 1 1 171 179 57 192
30 4 2 1 1 104 65 61 171
31 4 2 1 1 167 166 175 184
32 4 2 1 1 169 175 166 184
33 4 2 1 1 65 171 104 190
34 4 2 1 1 77 178 167 191
35 4 2 1 1 133 120 82 167
36 4 2 1 1 91 162 146 170
37 4 2 1 1 61 172 60 179
38 4 2 1 1 129 120 133 167
39 4 2 1 1 169 166 175 180
40 4 2 1 1 62 172 61 177
41 4 2 1 1 162 170 91 185
42 4 2 1 1 158 151 148 171
43 4 2 1 1 160 88 44 173
44 4 2 1 1 42 176 168 193
45 4 2 1 1 61 59 171 179
46 4 2 1 1 77 75 82 175
47 4 2 1 1 125 184 183 189
48 4 2 1 1 125 183 124 189
49 4 2 1 1 82 120 38 167
50 4 2 1 1 120 87 38 167
51 4 2 1 1 105 77 167 191
52 4 2 1 1 147 163 165 168
53 4 2 1 1 56 182 57 192
54 4 2 1 1 108 116 82 175
55 4 2 1 1 139 167 128 187
56 4 2 1 1 82 105 77 167
57 4 2 1 1 160 173 44 190
58 4 2 1 1 56 57 179 192
59 4 2 1 1 76 75 77 178
60 4 2 1 1 166 171 168 179
61 4 2 1 1 166 179 168 192
62 4 2 1 1 168 179 171 192
63 4 2 1 1 145 88 160 173
64 4 2 1 1 76 175 75 178
65 4 2 1 1 92 168 42 176
66 4 2 1 1 172 177 62 187
67 4 2 1 1 170 178 79 185
68 4 2 1 1 166 173 171 177
69 4 2 1 1 62 60 61 172
70 4 2 1 1 170 166 178 181
71 4 2 1 1 173 178 166 181
72 4 2 1 1 92 168 176 186
73 4 2 1 1 63 62 61 177
74 4 2 1 1 129 175 138 184
75 4 2 1 1 99 177 167 187
76 4 2 1 1 171 166 177 179
77 4 2 1 1 167 177 99 191
78 4 2 1 1 92 176 19 186
79 4 2 1 1 57 107 171 182
80 4 2 1 1 105 80 77 191
81 4 2 1 1 93 169 176 193
82 4 2 1 1 59 104 61 171
83 4 2 1 1 153 170 164 185
84 4 2 1 1 74 175 178 180
85 4 2 1 1 147 50 111 168
86 4 2 1 1 63 62 177 187
87 4 2 1 1 79 178 170 180
88 4 2 1 1 48 174 102 189
89 4 2 1 1 88 173 145 185
90 4 2 1 1 112 183 119 188
91 4 2 1 1 105 82 38 167
92 4 2 1 1 154 181 163 186
93 4 2 1 1 96 177 173 191
94 4 2 1 1 74 175 76 178
95 4 2 1 1 79 170 103 180
96 4 2 1 1 83 171 148 190
97 4 2 1 1 151 181 171 182
98 4 2 1 1 151 158 142 182
99 4 2 1 1 47 91 146 170
100 4 2 1 1 163 181 168 186
101 4 2 1 1 136 101 121 188
102 4 2 1 1 129 138 127 184
103 4 2 1 1 139 120 129 167
104 4 2 1 1 129 167 175 184
105 4 2 1 1 166 168 171 181
106 4 2 1 1 93 176 20 193
107 4 2 1 1 167 178 166 191
108 4 2 1 1 174 179 64 189
109 4 2 1 1 105 167 99 191
110 4 2 1 1 166 168 170 176
111 4 2 1 1 147 168 165 182
112 4 2 1 1 129 128 139 167
113 4 2 1 1 91 170 79 185
114 4 2 1 1 166 170 168 181
115 4 2 1 1 65 66 177 190
116 4 2 1 1 171 177 173 190
117 4 2 1 1 140 119 126 188
118 4 2 1 1 166 171 173 181
119 4 2 1 1 166 167 172 184
120 4 2 1 1 166 172 167 177
121 4 2 1 1 70 176 170 186
122 4 2 1 1 115 172 97 179
123 4 2 1 1 66 177 96 191
124 4 2 1 1 154 146 170 186
125 4 2 1 1 105 99 80 191
126 4 2 1 1 99 167 87 187
127 4 2 1 1 92 53 42 168
128 4 2 1 1 167 166 177 191
129 4 2 1 1 136 116 108 175
130 4 2 1 1 152 165 163 168
131 4 2 1 1 112 169 183 188
132 4 2 1 1 170 176 70 180
133 4 2 1 1 169 174 166 176
134 4 2 1 1 62 63 106 187
135 4 2 1 1 67 177 99 187
136 4 2 1 1 169 166 174 184
137 4 2 1 1 115 60 172 179
138 4 2 1 1 70 69 176 186
139 4 2 1 1 174 176 169 193
140 4 2 1 1 92 42 19 176
141 4 2 1 1 128 187 184 194
142 4 2 1 1 38 87 99 167
143 4 2 1 1 128 167 184 187
144 4 2 1 1 153 154 164 170
145 4 2 1 1 172 174 166 184
146 4 2 1 1 154 161 146 186
147 4 2 1 1 98 79 178 185
148 4 2 1 1 152 181 151 182
149 4 2 1 1 52 174 48 183
150 4 2 1 1 97 64 179 189
151 4 2 1 1 108 82 75 175
152 4 2 1 1 112 169 21 183
153 4 2 1 1 126 119 183 188
154 4 2 1 1 164 154 146 170
155 4 2 1 1 21 169 93 193
156 4 2 1 1 152 168 163 181
157 4 2 1 1 112 93 21 169
158 4 2 1 1 103 170 70 180
159 4 2 1 1 175 184 169 188
160 4 2 1 1 114 185 178 191
161 4 2 1 1 50 168 147 182
162 4 2 1 1 169 183 126 184
163 4 2 1 1 153 173 181 185
164 4 2 1 1 172 177 166 179
165 4 2 1 1 102 174 64 189
166 4 2 1 1 111 168 92 186
167 4 2 1 1 127 169 126 184
168 4 2 1 1 65 113 66 190
169 4 2 1 1 172 97 179 189
170 4 2 1 1 127 169 184 188
171 4 2 1 1 153 181 170 185
172 4 2 1 1 65 63 61 177
173 4 2 1 1 71 180 169 188
174 4 2 1 1 154 152 163 181
175 4 2 1 1 61 60 59 179
176 4 2 1 1 44 173 113 190
177 4 2 1 1 104 171 83 190
178 4 2 1 1 71 169 93 188
179 4 2 1 1 95 52 48 183
180 4 2 1 1 93 41 20 176
181 4 2 1 1 154 170 181 186
182 4 2 1 1 76 74 75 175
183 4 2 1 1 93 169 112 188
184 4 2 1 1 115 97 60 179
185 4 2 1 1 97 172 115 189
186 4 2 1 1 91 103 79 170
187 4 2 1 1 157 84 145 185
188 4 2 1 1 124 117 125 189
189 4 2 1 1 147 156 100 182
190 4 2 1 1 165 168 152 182
191 4 2 1 1 21 183 169 193
192 4 2 1 1 168 171 182 192
193 4 2 1 1 170 178 166 180
194 4 2 1 1 90 48 102 189
195 4 2 1 1 114 178 78 191
196 4 2 1 1 70 170 94 186
197 4 2 1 1 155 173 160 190
198 4 2 1 1 125 122 124 183
199 4 2 1 1 184 187 172 194
200 4 2 1 1 170 166 176 180
201 4 2 1 1 88 96 44 173
202 4 2 1 1 126 183 169 188
203 4 2 1 1 165 152 151 182
204 4 2 1 1 78 178 77 191
205 4 2 1 1 59 57 171 179
206 4 2 1 1 129 116 138 175
207 4 2 1 1 48 122 95 183
208 4 2 1 1 38 99 105 167
209 4 2 1 1 70 176 41 180
210 4 2 1 1 173 166 178 191
211 4 2 1 1 173 177 166 191
212 4 2 1 1 136 108 43 175
213 4 2 1 1 136 175 43 188
214 4 2 1 1 169 176 166 180
215 4 2 1 1 145 160 155 173
216 4 2 1 1 20 21 93 193
217 4 2 1 1 44 96 113 173
218 4 2 1 1 48 124 122 183
219 4 2 1 1 174 183 169 184
220 4 2 1 1 166 174 172 179
221 4 2 1 1 139 128 118 187
222 4 2 1 1 151 150 171 181
223 4 2 1 1 52 174 183 193
224 4 2 1 1 104 83 45 190
225 4 2 1 1 127 138 140 188
226 4 2 1 1 43 101 136 188
227 4 2 1 1 91 37 162 185
228 4 2 1 1 168 181 152 182
229 4 2 1 1 84 88 145 185
230 4 2 1 1 62 172 187 194
231 4 2 1 1 128 167 129 184
232 4 2 1 1 91 79 98 185
233 4 2 1 1 83 57 107 171
234 4 2 1 1 60 62 115 172
235 4 2 1 1 68 99 177 191
236 4 2 1 1 162 141 164 185
237 4 2 1 1 154 170 153 181
238 4 2 1 1 155 173 153 185
239 4 2 1 1 115 189 172 194
240 4 2 1 1 111 50 92 168
241 4 2 1 1 172 179 174 189
242 4 2 1 1 81 173 88 185
243 4 2 1 1 57 46 107 182
244 4 2 1 1 136 138 116 175
245 4 2 1 1 155 153 173 181
246 4 2 1 1 52 192 174 193
247 4 2 1 1 150 148 151 171
248 4 2 1 1 155 181 173 190
249 4 2 1 1 145 173 155 185
250 4 2 1 1 125 126 183 184
251 4 2 1 1 70 47 94 170
252 4 2 1 1 91 47 103 170
253 4 2 1 1 174 184 172 189
254 4 2 1 1 74 178 79 180
255 4 2 1 1 116 108 82 133
256 4 2 1 1 39 131 89 194
257 4 2 1 1 139 118 137 187
258 4 2 1 1 150 148 171 190
259 4 2 1 1 112 21 119 183
260 4 2 1 1 171 181 168 182
261 4 2 1 1 19 176 69 186
262 4 2 1 1 102 64 90 189
263 4 2 1 1 166 174 179 192
264 4 2 1 1 53 192 52 193
265 4 2 1 1 64 179 174 192
266 4 2 1 1 128 118 187 194
267 4 2 1 1 115 172 62 194
268 4 2 1 1 103 70 72 180
269 4 2 1 1 102 48 52 174
270 4 2 1 1 62 187 106 194
271 4 2 1 1 39 87 137 187
272 4 2 1 1 117 124 90 189
273 4 2 1 1 69 70 94 186
274 4 2 1 1 21 132 119 183
275 4 2 1 1 130 184 172 194
276 4 2 1 1 67 68 99 177
277 4 2 1 1 170 176 168 186
278 4 2 1 1 57 56 46 182
279 4 2 1 1 119 135 112 188
280 4 2 1 1 115 86 189 194
281 4 2 1 1 79 103 72 180
282 4 2 1 1 124 48 90 189
283 4 2 1 1 71 70 41 180
284 4 2 1 1 167 177 172 187
285 4 2 1 1 55 168 50 182
286 4 2 1 1 150 171 181 190
287 4 2 1 1 47 70 103 170
288 4 2 1 1 81 185 114 191
289 4 2 1 1 130 172 184 189
290 4 2 1 1 74 76 79 178
291 4 2 1 1 102 54 64 174
292 4 2 1 1 41 70 69 176
293 4 2 1 1 141 162 37 185
294 4 2 1 1 57 83 59 171
295 4 2 1 1 111 18 159 186
296 4 2 1 1 54 64 174 192
297 4 2 1 1 155 150 181 190
298 4 2 1 1 172 189 130 194
299 4 2 1 1 168 182 55 192
300 4 2 1 1 78 76 77 178
301 4 2 1 1 83 104 59 171
302 4 2 1 1 53 168 55 192
303 4 2 1 1 81 173 185 191
304 4 2 1 1 20 176 19 193
305 4 2 1 1 52 183 51 193
306 4 2 1 1 19 18 92 186
307 4 2 1 1 39 137 118 187
308 4 2 1 1 73 175 180 188
309 4 2 1 1 18 144 159 186
310 4 2 1 1 172 184 167 187
311 4 2 1 1 86 123 134 189
312 4 2 1 1 53 92 50 168
313 4 2 1 1 168 181 170 186
314 4 2 1 1 78 77 80 191
315 4 2 1 1 18 111 92 186
316 4 2 1 1 39 118 131 194
317 4 2 1 1 66 63 65 177
318 4 2 1 1 73 180 71 188
319 4 2 1 1 53 50 55 168
320 4 2 1 1 130 128 184 194
321 4 2 1 1 42 19 176 193
322 4 2 1 1 59 58 57 179
323 4 2 1 1 141 157 145 185
324 4 2 1 1 52 95 51 183
325 4 2 1 1 173 181 171 190
326 4 2 1 1 125 127 126 184
327 4 2 1 1 86 134 40 189
328 4 2 1 1 81 96 88 173
329 4 2 1 1 151 152 150 181
330 4 2 1 1 86 123 189 194
331 4 2 1 1 52 54 174 192
332 4 2 1 1 178 185 173 191
333 4 2 1 1 81 114 78 191
334 4 2 1 1 42 53 52 193
335 4 2 1 1 155 160 143 190
336 4 2 1 1 100 156 147 35
337 4 2 1 1 144 163 159 186
338 4 2 1 1 84 81 88 185
339 4 2 1 1 153 164 141 185
340 4 2 1 1 63 177 67 187
341 4 2 1 1 169 180 175 188
342 4 2 1 1 19 41 69 176
343 4 2 1 1 147 100 50 182
344 4 2 1 1 11 39 131 89
345 4 2 1 1 157 37 84 185
346 4 2 1 1 98 178 114 185
347 4 2 1 1 56 55 182 192
348 4 2 1 1 102 52 54 174
349 4 2 1 1 58 56 57 179
350 4 2 1 1 74 73 175 180
351 4 2 1 1 144 161 154 186
352 4 2 1 1 144 2 18 159
353 4 2 1 1 81 96 173 191
354 4 2 1 1 130 184 125 189
355 4 2 1 1 44 85 29 160
356 4 2 1 1 157 141 37 185
357 4 2 1 1 56 179 64 192
358 4 2 1 1 85 143 29 160
359 4 2 1 1 156 147 165 182
360 4 2 1 1 145 155 141 185
361 4 2 1 1 132 1 21 119
362 4 2 1 1 114 98 78 178
363 4 2 1 1 20 41 19 176
364 4 2 1 1 63 67 106 187
365 4 2 1 1 42 20 19 193
366 4 2 1 1 40 115 86 189
367 4 2 1 1 72 70 71 180
368 4 2 1 1 34 156 142 182
369 4 2 1 1 150 149 148 190
370 4 2 1 1 71 93 49 188
371 4 2 1 1 135 119 140 188
372 4 2 1 1 98 79 76 178
373 4 2 1 1 142 158 33 46
374 4 2 1 1 51 183 21 193
375 4 2 1 1 169 183 174 193
376 4 2 1 1 39 187 118 194
377 4 2 1 1 99 87 67 187
378 4 2 1 1 115 62 86 194
379 4 2 1 1 155 153 141 185
380 4 2 1 1 52 53 54 192
381 4 2 1 1 58 60 97 179
382 4 2 1 1 18 19 69 186
383 4 2 1 1 75 43 108 175
384 4 2 1 1 11 39 118 131
385 4 2 1 1 148 83 32 158
386 4 2 1 1 59 60 58 179
387 4 2 1 1 161 110 94 186
388 4 2 1 1 121 140 138 188
389 4 2 1 1 121 4 135 188
390 4 2 1 1 63 66 67 177
391 4 2 1 1 106 187 89 194
392 4 2 1 1 5 121 136 101
393 4 2 1 1 58 97 64 179
394 4 2 1 1 74 79 72 180
395 4 2 1 1 20 51 21 193
396 4 2 1 1 39 89 187 194
397 4 2 1 1 66 68 177 191
398 4 2 1 1 85 44 113 190
399 4 2 1 1 34 100 156 182
400 4 2 1 1 49 93 112 188
401 4 2 1 1 18 110 144 186
402 4 2 1 1 160 28 44 88
403 4 2 1 1 83 107 32 158
404 4 2 1 1 97 90 64 189
405 4 2 1 1 144 154 163 186
406 4 2 1 1 161 144 110 186
407 4 2 1 1 107 33 158 46
408 4 2 1 1 66 96 68 191
409 4 2 1 1 45 65 104 190
410 4 2 1 1 64 56 58 179
411 4 2 1 1 84 114 81 185
412 4 2 1 1 148 31 83 149
413 4 2 1 1 43 75 74 175
414 4 2 1 1 56 55 46 182
415 4 2 1 1 43 74 73 175
416 4 2 1 1 91 37 25 162
417 4 2 1 1 131 86 89 194
418 4 2 1 1 132 21 109 183
419 4 2 1 1 135 49 112 188
420 4 2 1 1 98 37 91 185
421 4 2 1 1 128 129 127 184
422 4 2 1 1 62 106 89 194
423 4 2 1 1 14 134 117 189
424 4 2 1 1 39 89 106 187
425 4 2 1 1 141 157 37 26
426 4 2 1 1 15 117 124 90
427 4 2 1 1 78 98 76 178
428 4 2 1 1 146 23 47 161
429 4 2 1 1 154 153 152 181
430 4 2 1 1 40 86 13 134
431 4 2 1 1 160 145 28 88
432 4 2 1 1 18 2 144 110
433 4 2 1 1 68 67 66 177
434 4 2 1 1 87 137 10 39
435 4 2 1 1 14 40 134 189
436 4 2 1 1 131 123 86 194
437 4 2 1 1 50 100 147 35
438 4 2 1 1 55 50 100 182
439 4 2 1 1 122 132 109 183
440 4 2 1 1 97 115 40 189
441 4 2 1 1 157 37 26 84
442 4 2 1 1 31 45 83 149
443 4 2 1 1 54 56 64 192
444 4 2 1 1 12 131 86 89
445 4 2 1 1 123 130 189 194
446 4 2 1 1 21 1 112 119
447 4 2 1 1 126 119 132 183
448 4 2 1 1 149 143 85 190
449 4 2 1 1 39 137 10 118
450 4 2 1 1 141 25 37 162
451 4 2 1 1 123 13 86 134
452 4 2 1 1 43 5 136 101
453 4 2 1 1 90 124 15 48
454 4 2 1 1 14 117 90 189
455 4 2 1 1 23 94 47 161
456 4 2 1 1 116 108 6 136
457 4 2 1 1 155 143 150 190
458 4 2 1 1 74 72 73 180
459 4 2 1 1 121 101 4 188
460 4 2 1 1 80 99 68 191
461 4 2 1 1 86 131 12 123
462 4 2 1 1 149 85 45 190
463 4 2 1 1 136 108 6 43
464 4 2 1 1 126 122 125 183
465 4 2 1 1 46 34 142 182
466 4 2 1 1 17 109 122 132
467 4 2 1 1 4 49 135 188
468 4 2 1 1 71 49 73 188
469 4 2 1 1 123 130 134 189
470 4 2 1 1 95 122 109 183
471 4 2 1 1 159 147 36 111
472 4 2 1 1 153 150 152 181
473 4 2 1 1 142 165 151 182
474 4 2 1 1 94 110 69 186
475 4 2 1 1 85 113 65 190
476 4 2 1 1 73 72 71 180
477 4 2 1 1 149 150 143 190
478 4 2 1 1 62 89 86 194
479 4 2 1 1 14 90 40 189
480 4 2 1 1 128 130 118 194
481 4 2 1 1 39 67 87 187
482 4 2 1 1 149 30 85 143
483 4 2 1 1 155 150 153 181
484 4 2 1 1 159 2 18 111
485 4 2 1 1 130 125 117 189
486 4 2 1 1 128 127 125 184
487 4 2 1 1 46 100 34 182
488 4 2 1 1 109 21 51 183
489 4 2 1 1 85 65 45 190
490 4 2 1 1 7 82 108 133
491 4 2 1 1 132 1 109 21
492 4 2 1 1 109 95 17 122
493 4 2 1 1 135 112 3 119
494 4 2 1 1 30 85 45 149
495 4 2 1 1 116 7 108 133
496 4 2 1 1 42 52 51 193
497 4 2 1 1 51 95 109 183
498 4 2 1 1 147 36 111 50
499 4 2 1 1 125 130 128 184
500 4 2 1 1 101 49 4 188
501 4 2 1 1 37 98 114 185
502 4 2 1 1 117 15 14 90
503 4 2 1 1 32 31 83 148
504 4 2 1 1 24 23 47 146
505 4 2 1 1 10 11 39 118
506 4 2 1 1 40 90 97 189
507 4 2 1 1 16 17 95 122
508 4 2 1 1 78 80 81 191
509 4 2 1 1 69 110 18 186
510 4 2 1 1 144 161 110 22
511 4 2 1 1 123 118 130 194
512 4 2 1 1 39 106 67 187
513 4 2 1 1 165 142 156 182
514 4 2 1 1 130 117 134 189
515 4 2 1 1 122 126 132 183
516 4 2 1 1 135 140 121 188
517 4 2 1 1 3 112 135 49
518 4 2 1 1 37 25 141 26
519 4 2 1 1 27 28 145 88
520 4 2 1 1 110 2 144 22
521 4 2 1 1 143 30 85 29
522 4 2 1 1 101 73 49 188
523 4 2 1 1 37 114 84 185
524 4 2 1 1 118 123 131 194
525 4 2 1 1 54 55 56 192
526 4 2 1 1 8 9 38 120
527 4 2 1 1 29 28 44 160
528 4 2 1 1 34 142 33 46
529 4 2 1 1 147 36 50 35
530 4 2 1 1 91 25 24 162
531 4 2 1 1 55 100 46 182
532 4 2 1 1 53 55 54 192
533 4 2 1 1 20 42 51 193
534 4 2 1 1 81 68 96 191
535 4 2 1 1 135 4 3 49
536 4 2 1 1 131 12 11 89
537 4 2 1 1 68 81 80 191
538 4 2 1 1 86 12 13 123
539 4 2 1 1 136 6 5 43
540 4 2 1 1 108 6 7 116
541 4 2 1 1 110 161 94 22
542 4 2 1 1 40 13 14 134
543 4 2 1 1 112 1 3 119
544 4 2 1 1 82 7 8 133
545 4 2 1 1 10 9 137 87
546 4 2 1 1 109 17 1 132
547 4 2 1 1 121 5 4 101
548 4 2 1 1 161 23 94 22
549 4 2 1 1 27 157 26 84
550 4 2 1 1 100 34 156 35
551 4 2 1 1 2 159 36 111
552 4 2 1 1 16 15 124 48
553 4 2 1 1 107 33 32 158
554 4 2 1 1 45 31 30 149
555 4 2 1 1 147 186 111 159
556 4 2 1 1 111 186 147 168
557 4 2 1 1 193 168 174 176
558 4 2 1 1 193 174 168 192
559 4 2 1 1 166 174 168 176
560 4 2 1 1 166 168 174 192
561 4 2 1 1 120 82 8 133
562 4 2 1 1 120 8 82 38
563 4 2 1 1 178 181 185 170
564 4 2 1 1 185 181 178 173
565 4 2 1 1 190 66 173 113
566 4 2 1 1 190 173 66 177
567 4 2 1 1 96 173 66 113
568 4 2 1 1 96 66 173 177
569 4 2 1 1 87 120 9 137
570 4 2 1 1 87 9 120 38
571 4 2 1 1 91 146 24 47
572 4 2 1 1 24 146 91 162
573 4 2 1 1 184 138 188 175
574 4 2 1 1 184 188 138 127
575 4 2 1 1 126 188 127 140
576 4 2 1 1 127 188 126 169
577 4 2 1 1 188 136 138 121
578 4 2 1 1 188 138 136 175
579 4 2 1 1 161 186 170 146
580 4 2 1 1 170 186 161 94
581 4 2 1 1 170 47 161 146
582 4 2 1 1 161 47 170 94
583 4 2 1 1 83 158 171 107
584 4 2 1 1 171 158 83 148
585 4 2 1 1 193 53 168 42
586 4 2 1 1 193 168 53 192
587 4 2 1 1 122 48 16 124
588 4 2 1 1 122 16 48 95
589 4 2 1 1 180 169 93 71
590 4 2 1 1 93 169 180 176
591 4 2 1 1 93 41 180 71
592 4 2 1 1 180 41 93 176
593 4 2 1 1 188 43 73 175
594 4 2 1 1 188 73 43 101
595 4 2 1 1 85 160 190 143
596 4 2 1 1 190 160 85 44
597 4 2 1 1 83 149 190 148
598 4 2 1 1 190 149 83 45
599 4 2 1 1 46 158 182 142
600 4 2 1 1 46 182 158 107
601 4 2 1 1 145 84 27 88
602 4 2 1 1 27 84 145 157
$EndElements
